<?xml version="1.0" encoding="UTF-8" standalone="no"?>
<!DOCTYPE svg PUBLIC "-//W3C//DTD SVG 1.1//EN"
 "http://www.w3.org/Graphics/SVG/1.1/DTD/svg11.dtd">
<!-- Generated by graphviz version 2.40.1 (20161225.0304)
 -->
<!-- Title: G Pages: 1 -->
<svg width="782pt" height="310pt"
 viewBox="0.00 0.00 782.00 310.00" xmlns="http://www.w3.org/2000/svg" xmlns:xlink="http://www.w3.org/1999/xlink">
<g id="graph0" class="graph" transform="scale(1 1) rotate(0) translate(4 306)">
<title>G</title>
<polygon fill="#ffffff" stroke="transparent" points="-4,4 -4,-306 778,-306 778,4 -4,4"/>
<text text-anchor="middle" x="387" y="-283.6" font-family="Noto Sans CJK SC" font-size="16.00" fill="#1f2933">session 通道的三种启动方式（RFC 4254 §6.5）</text>
<g id="clust1" class="cluster">
<title>cluster_req</title>
<path fill="#ddf3e4" stroke="#7a93be" d="M20,-71C20,-71 754,-71 754,-71 760,-71 766,-77 766,-83 766,-83 766,-139 766,-139 766,-145 760,-151 754,-151 754,-151 20,-151 20,-151 14,-151 8,-145 8,-139 8,-139 8,-83 8,-83 8,-77 14,-71 20,-71"/>
<text text-anchor="middle" x="387" y="-132.6" font-family="Noto Sans CJK SC" font-size="16.00" fill="#1f2933">启动请求（同一条通道生命周期内三选一）</text>
</g>
<!-- c -->
<g id="node1" class="node">
<title>c</title>
<path fill="#dce9fb" stroke="#7a93be" d="M400.5422,-274.8C400.5422,-274.8 367.4578,-274.8 367.4578,-274.8 361.4578,-274.8 355.4578,-268.8 355.4578,-262.8 355.4578,-262.8 355.4578,-250.8 355.4578,-250.8 355.4578,-244.8 361.4578,-238.8 367.4578,-238.8 367.4578,-238.8 400.5422,-238.8 400.5422,-238.8 406.5422,-238.8 412.5422,-244.8 412.5422,-250.8 412.5422,-250.8 412.5422,-262.8 412.5422,-262.8 412.5422,-268.8 406.5422,-274.8 400.5422,-274.8"/>
<text text-anchor="middle" x="384" y="-253.2" font-family="Noto Sans CJK SC" font-size="12.00" fill="#1f2933">客户端</text>
</g>
<!-- open -->
<g id="node2" class="node">
<title>open</title>
<path fill="#f7f9fc" stroke="#7a93be" d="M451.1432,-195.7005C451.1432,-195.7005 316.8568,-195.7005 316.8568,-195.7005 310.8568,-195.7005 304.8568,-189.7005 304.8568,-183.7005 304.8568,-183.7005 304.8568,-171.0995 304.8568,-171.0995 304.8568,-165.0995 310.8568,-159.0995 316.8568,-159.0995 316.8568,-159.0995 451.1432,-159.0995 451.1432,-159.0995 457.1432,-159.0995 463.1432,-165.0995 463.1432,-171.0995 463.1432,-171.0995 463.1432,-183.7005 463.1432,-183.7005 463.1432,-189.7005 457.1432,-195.7005 451.1432,-195.7005"/>
<text text-anchor="middle" x="384" y="-181" font-family="Noto Sans CJK SC" font-size="12.00" fill="#1f2933">CHANNEL_OPEN（90）</text>
<text text-anchor="middle" x="384" y="-166.6" font-family="Noto Sans CJK SC" font-size="12.00" fill="#1f2933">channel_type = &quot;session&quot;</text>
</g>
<!-- c&#45;&gt;open -->
<g id="edge1" class="edge">
<title>c&#45;&gt;open</title>
<path fill="none" stroke="#5a5a5a" d="M384,-238.7829C384,-229.0744 384,-216.8702 384,-205.9065"/>
<polygon fill="#5a5a5a" stroke="#5a5a5a" points="387.5001,-205.8968 384,-195.8968 380.5001,-205.8968 387.5001,-205.8968"/>
</g>
<!-- shr -->
<g id="node3" class="node">
<title>shr</title>
<path fill="#ffffff" stroke="#7a93be" d="M746.0636,-115.7005C746.0636,-115.7005 543.9364,-115.7005 543.9364,-115.7005 537.9364,-115.7005 531.9364,-109.7005 531.9364,-103.7005 531.9364,-103.7005 531.9364,-91.0995 531.9364,-91.0995 531.9364,-85.0995 537.9364,-79.0995 543.9364,-79.0995 543.9364,-79.0995 746.0636,-79.0995 746.0636,-79.0995 752.0636,-79.0995 758.0636,-85.0995 758.0636,-91.0995 758.0636,-91.0995 758.0636,-103.7005 758.0636,-103.7005 758.0636,-109.7005 752.0636,-115.7005 746.0636,-115.7005"/>
<text text-anchor="middle" x="645" y="-101" font-family="Noto Sans CJK SC" font-size="12.00" fill="#1f2933">shell 请求：启动用户默认登录 shell</text>
<text text-anchor="middle" x="645" y="-86.6" font-family="Noto Sans CJK SC" font-size="12.00" fill="#1f2933">典型：ssh host（通常先发 pty&#45;req）</text>
</g>
<!-- open&#45;&gt;shr -->
<g id="edge2" class="edge">
<title>open&#45;&gt;shr</title>
<path fill="none" stroke="#5a5a5a" d="M463.3086,-163.0134C485.454,-158.6945 506.3616,-154.2473 517,-151 544.3601,-142.6486 573.8765,-130.5133 597.6629,-119.9009"/>
<polygon fill="#5a5a5a" stroke="#5a5a5a" points="599.1412,-123.0737 606.814,-115.7676 596.2598,-116.6943 599.1412,-123.0737"/>
</g>
<!-- exr -->
<g id="node4" class="node">
<title>exr</title>
<path fill="#ffffff" stroke="#7a93be" d="M490.8153,-115.7005C490.8153,-115.7005 277.1847,-115.7005 277.1847,-115.7005 271.1847,-115.7005 265.1847,-109.7005 265.1847,-103.7005 265.1847,-103.7005 265.1847,-91.0995 265.1847,-91.0995 265.1847,-85.0995 271.1847,-79.0995 277.1847,-79.0995 277.1847,-79.0995 490.8153,-79.0995 490.8153,-79.0995 496.8153,-79.0995 502.8153,-85.0995 502.8153,-91.0995 502.8153,-91.0995 502.8153,-103.7005 502.8153,-103.7005 502.8153,-109.7005 496.8153,-115.7005 490.8153,-115.7005"/>
<text text-anchor="middle" x="384" y="-101" font-family="Noto Sans CJK SC" font-size="12.00" fill="#1f2933">exec 请求：执行给定命令，跑完即收</text>
<text text-anchor="middle" x="384" y="-86.6" font-family="Noto Sans CJK SC" font-size="12.00" fill="#1f2933">典型：ssh host uname &#45;a、rsync、git</text>
</g>
<!-- open&#45;&gt;exr -->
<!-- sur -->
<g id="node5" class="node">
<title>sur</title>
<path fill="#ffffff" stroke="#7a93be" d="M224.0237,-115.7005C224.0237,-115.7005 27.9763,-115.7005 27.9763,-115.7005 21.9763,-115.7005 15.9763,-109.7005 15.9763,-103.7005 15.9763,-103.7005 15.9763,-91.0995 15.9763,-91.0995 15.9763,-85.0995 21.9763,-79.0995 27.9763,-79.0995 27.9763,-79.0995 224.0237,-79.0995 224.0237,-79.0995 230.0237,-79.0995 236.0237,-85.0995 236.0237,-91.0995 236.0237,-91.0995 236.0237,-103.7005 236.0237,-103.7005 236.0237,-109.7005 230.0237,-115.7005 224.0237,-115.7005"/>
<text text-anchor="middle" x="126" y="-101" font-family="Noto Sans CJK SC" font-size="12.00" fill="#1f2933">subsystem 请求：启动预定义子系统</text>
<text text-anchor="middle" x="126" y="-86.6" font-family="Noto Sans CJK SC" font-size="12.00" fill="#1f2933">典型：sftp、新式 scp</text>
</g>
<!-- open&#45;&gt;sur -->
<!-- s -->
<g id="node6" class="node">
<title>s</title>
<path fill="#dce9fb" stroke="#7a93be" d="M510.4508,-36C510.4508,-36 257.5492,-36 257.5492,-36 251.5492,-36 245.5492,-30 245.5492,-24 245.5492,-24 245.5492,-12 245.5492,-12 245.5492,-6 251.5492,0 257.5492,0 257.5492,0 510.4508,0 510.4508,0 516.4508,0 522.4508,-6 522.4508,-12 522.4508,-12 522.4508,-24 522.4508,-24 522.4508,-30 516.4508,-36 510.4508,-36"/>
<text text-anchor="middle" x="384" y="-14.4" font-family="Noto Sans CJK SC" font-size="12.00" fill="#1f2933">sshd（pty&#45;req / env 可先于 shell 或 exec：ssh &#45;t）</text>
</g>
<!-- shr&#45;&gt;s -->
<g id="edge5" class="edge">
<title>shr&#45;&gt;s</title>
<path fill="none" stroke="#5a5a5a" d="M584.7936,-79.0843C545.4905,-67.1278 494.0624,-51.4826 453.0933,-39.0192"/>
<polygon fill="#5a5a5a" stroke="#5a5a5a" points="454.039,-35.6486 443.4532,-36.0865 452.0016,-42.3455 454.039,-35.6486"/>
</g>
<!-- exr&#45;&gt;s -->
<g id="edge6" class="edge">
<title>exr&#45;&gt;s</title>
<path fill="none" stroke="#5a5a5a" d="M384,-78.9845C384,-69.2953 384,-57.2047 384,-46.3499"/>
<polygon fill="#5a5a5a" stroke="#5a5a5a" points="387.5001,-46.0419 384,-36.0419 380.5001,-46.0419 387.5001,-46.0419"/>
</g>
<!-- sur&#45;&gt;s -->
<g id="edge7" class="edge">
<title>sur&#45;&gt;s</title>
<path fill="none" stroke="#5a5a5a" d="M185.5144,-79.0843C224.2838,-67.153 274.9883,-51.5486 315.4445,-39.0981"/>
<polygon fill="#5a5a5a" stroke="#5a5a5a" points="316.702,-42.3732 325.2301,-36.0865 314.643,-35.6828 316.702,-42.3732"/>
</g>
</g>
</svg>
