<svg xmlns="http://www.w3.org/2000/svg" xmlns:xlink="http://www.w3.org/1999/xlink" version="1.1" data-diagram-type="DESCRIPTION" style="width:639px;height:684px;background:#FFFFFF;" width="639px" height="684px" viewBox="0 0 639 684" zoomAndPan="magnify" preserveAspectRatio="none" contentStyleType="text/css"><?plantuml 1.2026.7beta11?><defs/><g font-family="sans-serif" lengthAdjust="spacing"><g class="title" data-source-line="26"><text x="38.982" y="35.421" fill="#000" font-size="22" textLength="559.723" font-weight="700" font-family="'Segoe UI'">HTTP 多实例:崩溃后,有状态要重新握手,无状态透明重试</text></g><!--cluster left--><g class="cluster" data-qualified-name="left" id="ent0001" data-source-line="30"><rect x="12" y="115.729" width="243" height="548.98" fill="#FFE8E8" style="stroke:#7A93BE;stroke-width:1;" rx="5" ry="5"/><text x="104.015" y="128.868" fill="#1F2933" font-size="12" textLength="58.969" font-weight="700" font-family="'Segoe UI'">有状态(旧)</text><text x="46.843" y="142.837" fill="#1F2933" font-size="12" textLength="173.315" font-weight="700" font-family="'Segoe UI'">session abc123 绑定在 A 上</text></g><!--cluster right--><g class="cluster" data-qualified-name="right" id="ent0013" data-source-line="48"><rect x="311" y="115.729" width="307" height="554.8" fill="#DDF3E4" style="stroke:#7A93BE;stroke-width:1;" rx="5" ry="5"/><text x="435.015" y="128.868" fill="#1F2933" font-size="12" textLength="58.969" font-weight="700" font-family="'Segoe UI'">无状态(新)</text><text x="408.22" y="142.837" fill="#1F2933" font-size="12" textLength="112.559" font-weight="700" font-family="'Segoe UI'">请求自包含,实例对等</text></g><!--entity cc1--><g class="entity" data-qualified-name="left.cc1" id="ent0002" data-source-line="31"><rect x="71.9" y="169.729" width="96.207" height="33.969" fill="#FFF" style="stroke:#7A93BE;stroke-width:1;" rx="5" ry="5"/><text x="81.9" y="190.868" fill="#1F2933" font-size="12" textLength="76.207" font-family="'Segoe UI'">Claude Code</text></g><!--entity lb1--><g class="entity" data-qualified-name="left.lb1" id="ent0003" data-source-line="32"><rect x="102.54" y="290.699" width="34.918" height="33.969" fill="#FFF3D6" style="stroke:#7A93BE;stroke-width:1;" rx="5" ry="5"/><text x="112.54" y="311.838" fill="#1F2933" font-size="12" textLength="14.918" font-family="'Segoe UI'">LB</text></g><!--entity a1--><g class="entity" data-qualified-name="left.a1" id="ent0004" data-source-line="33"><rect x="36.05" y="398.669" width="69.893" height="33.969" fill="#FFD6D6" style="stroke:#7A93BE;stroke-width:1;" rx="5" ry="5"/><text x="46.05" y="419.808" fill="#1F2933" font-size="12" textLength="49.893" font-family="'Segoe UI'">A ✗ 崩溃</text></g><!--entity b1--><g class="entity" data-qualified-name="left.b1" id="ent0005" data-source-line="34"><rect x="79.95" y="506.639" width="42.102" height="33.969" fill="#DDF3E4" style="stroke:#7A93BE;stroke-width:1;" rx="5" ry="5"/><text x="89.95" y="527.778" fill="#1F2933" font-size="12" textLength="22.102" font-family="'Segoe UI'">B ✓</text></g><g class="entity" data-qualified-name="left.GMN10" id="ent0011" data-source-line="40"><path d="M37.07,612.429 L37.07,635.711 A5,5 0 0 0 42.07,640.711 L159.925,640.711 A5,5 0 0 0 164.925,635.711 L164.925,617.429 L154.925,607.429 L105,607.429 L101,540.879 L97,607.429 L42.07,607.429 A5,5 0 0 0 37.07,612.429" style="stroke:#E0B400;stroke-width:1;" fill="#FFD6D6"/><path d="M154.925,607.429 L154.925,614.929 A2.5,2.5 0 0 0 157.425,617.429 L164.925,617.429 L154.925,607.429" style="stroke:#E0B400;stroke-width:1;" fill="#FFD6D6"/><text x="43.07" y="621.712" fill="#5C4A00" font-size="10" textLength="106.855" font-family="'Segoe UI'">B: "我不认识 abc123!"</text><text x="43.07" y="633.352" fill="#5C4A00" font-size="10" textLength="96.416" font-family="'Segoe UI'">→ 必须重新 initialize</text></g><!--entity cc2--><g class="entity" data-qualified-name="right.cc2" id="ent0014" data-source-line="49"><rect x="346.9" y="169.729" width="96.207" height="33.969" fill="#FFF" style="stroke:#7A93BE;stroke-width:1;" rx="5" ry="5"/><text x="356.9" y="190.868" fill="#1F2933" font-size="12" textLength="76.207" font-family="'Segoe UI'">Claude Code</text></g><!--entity lb2--><g class="entity" data-qualified-name="right.lb2" id="ent0015" data-source-line="50"><rect x="377.54" y="290.699" width="34.918" height="33.969" fill="#FFF3D6" style="stroke:#7A93BE;stroke-width:1;" rx="5" ry="5"/><text x="387.54" y="311.838" fill="#1F2933" font-size="12" textLength="14.918" font-family="'Segoe UI'">LB</text></g><!--entity a2--><g class="entity" data-qualified-name="right.a2" id="ent0016" data-source-line="51"><rect x="335.05" y="398.669" width="69.893" height="33.969" fill="#FFD6D6" style="stroke:#7A93BE;stroke-width:1;" rx="5" ry="5"/><text x="345.05" y="419.808" fill="#1F2933" font-size="12" textLength="49.893" font-family="'Segoe UI'">A ✗ 崩溃</text></g><!--entity b2--><g class="entity" data-qualified-name="right.b2" id="ent0017" data-source-line="52"><rect x="421.95" y="506.639" width="42.102" height="33.969" fill="#DDF3E4" style="stroke:#7A93BE;stroke-width:1;" rx="5" ry="5"/><text x="431.95" y="527.778" fill="#1F2933" font-size="12" textLength="22.102" font-family="'Segoe UI'">B ✓</text></g><g class="entity" data-qualified-name="right.GMN22" id="ent0023" data-source-line="58"><path d="M366.79,606.609 L366.79,641.531 A5,5 0 0 0 371.79,646.531 L514.211,646.531 A5,5 0 0 0 519.211,641.531 L519.211,611.609 L509.211,601.609 L447,601.609 L443,540.879 L439,601.609 L371.79,601.609 A5,5 0 0 0 366.79,606.609" style="stroke:#E0B400;stroke-width:1;" fill="#DDF3E4"/><path d="M509.211,601.609 L509.211,609.109 A2.5,2.5 0 0 0 511.711,611.609 L519.211,611.609 L509.211,601.609" style="stroke:#E0B400;stroke-width:1;" fill="#DDF3E4"/><text x="372.79" y="615.892" fill="#5C4A00" font-size="10" textLength="107.339" font-family="'Segoe UI'">B 收到 _meta,直接处理</text><text x="372.79" y="627.532" fill="#5C4A00" font-size="10" textLength="110" font-family="'Segoe UI'">从未见过此客户端也无妨</text><text x="372.79" y="639.173" fill="#5C4A00" font-size="10" textLength="131.421" font-family="'Segoe UI'">→ 对 Claude Code 几乎透明</text></g><!--link cc1 to lb1--><g class="link" data-entity-1="ent0002" data-entity-2="ent0003" id="lnk6" data-source-line="35" data-link-type="dependency"><path d="M120,203.759 C120,226.469 120,262.739 120,285.519" style="stroke:#5A5A5A;stroke-width:1;" fill="none" id="cc1-to-lb1"/><polygon points="120,290.519,124,281.519,120,285.519,116,281.519,120,290.519" fill="#5A5A5A" style="stroke:#5A5A5A;stroke-width:1;stroke-linejoin:miter;stroke-miterlimit:10;"/><text x="139.012" y="244.91" fill="#333" font-size="11" textLength="49.167" font-family="'Segoe UI'">tools/call</text><text x="121" y="257.715" fill="#333" font-size="11" textLength="85.191" font-family="'Segoe UI'">session:abc123</text></g><!--link lb1 to a1--><g class="link" data-entity-1="ent0003" data-entity-2="ent0004" id="lnk7" data-source-line="36" data-link-type="dependency"><path d="M112.56,324.779 C103.35,344.699 89.848,373.881 80.608,393.871" style="stroke:#5A5A5A;stroke-width:1;" fill="none" id="lb1-to-a1"/><polygon points="78.51,398.409,85.917,391.918,80.608,393.871,78.655,388.562,78.51,398.409" fill="#5A5A5A" style="stroke:#5A5A5A;stroke-width:1;stroke-linejoin:miter;stroke-miterlimit:10;"/><text x="99" y="365.88" fill="#333" font-size="11" textLength="44.021" font-family="'Segoe UI'">路由到 A</text></g><!--link a1 to b1--><g class="link" data-entity-1="ent0004" data-entity-2="ent0005" id="lnk8" data-source-line="37" data-link-type="dependency"><path d="M75.56,432.749 C81.2,452.669 89.378,481.578 95.038,501.568" style="stroke:#5A5A5A;stroke-width:1;" fill="none" id="a1-to-b1"/><polygon points="96.4,506.379,97.797,496.63,95.038,501.568,90.099,498.81,96.4,506.379" fill="#5A5A5A" style="stroke:#5A5A5A;stroke-width:1;stroke-linejoin:miter;stroke-miterlimit:10;"/><text x="88" y="473.85" fill="#333" font-size="11" textLength="66.021" font-family="'Segoe UI'">A 崩溃被摘除</text></g><!--link lb1 to b1--><g class="link" data-entity-1="ent0003" data-entity-2="ent0005" id="lnk9" data-source-line="38" data-link-type="dependency"><path d="M134.4,324.989 C140.9,333.299 148.01,343.909 152,354.669 C170.91,405.709 187.47,428.019 163,476.639 C154.56,493.399 141.229,503.239 126.879,510.839" style="stroke:#5A5A5A;stroke-width:1;stroke-dasharray:7,7;" fill="none" id="lb1-to-b1"/><polygon points="122.46,513.179,132.286,512.502,126.879,510.839,128.541,505.432,122.46,513.179" fill="#5A5A5A" style="stroke:#5A5A5A;stroke-width:1;stroke-linejoin:miter;stroke-miterlimit:10;"/><text x="176" y="419.87" fill="#333" font-size="11" textLength="45.756" font-family="'Segoe UI'">重试 → B</text></g><!--link cc2 to lb2--><g class="link" data-entity-1="ent0014" data-entity-2="ent0015" id="lnk18" data-source-line="53" data-link-type="dependency"><path d="M395,203.759 C395,226.469 395,262.739 395,285.519" style="stroke:#5A5A5A;stroke-width:1;" fill="none" id="cc2-to-lb2"/><polygon points="395,290.519,399,281.519,395,285.519,391,281.519,395,290.519" fill="#5A5A5A" style="stroke:#5A5A5A;stroke-width:1;stroke-linejoin:miter;stroke-miterlimit:10;"/><text x="460.05" y="244.91" fill="#333" font-size="11" textLength="49.167" font-family="'Segoe UI'">tools/call</text><text x="396" y="257.715" fill="#333" font-size="11" textLength="177.268" font-family="'Segoe UI'">_meta:{version, client_id, caps}</text></g><!--link lb2 to a2--><g class="link" data-entity-1="ent0015" data-entity-2="ent0016" id="lnk19" data-source-line="54" data-link-type="dependency"><path d="M391.2,324.779 C386.5,344.699 379.699,373.553 374.979,393.543" style="stroke:#5A5A5A;stroke-width:1;" fill="none" id="lb2-to-a2"/><polygon points="373.83,398.409,379.791,390.569,374.979,393.543,372.005,388.731,373.83,398.409" fill="#5A5A5A" style="stroke:#5A5A5A;stroke-width:1;stroke-linejoin:miter;stroke-miterlimit:10;"/><text x="384" y="365.88" fill="#333" font-size="11" textLength="44.021" font-family="'Segoe UI'">路由到 A</text></g><!--link a2 to b2--><g class="link" data-entity-1="ent0016" data-entity-2="ent0017" id="lnk20" data-source-line="55" data-link-type="dependency"><path d="M375.88,432.979 C380.79,445.509 388.51,462.939 398,476.639 C405.5,487.479 412.02,494.65 420.78,502.95" style="stroke:#5A5A5A;stroke-width:1;" fill="none" id="a2-to-b2"/><polygon points="424.41,506.389,420.628,497.296,420.78,502.95,415.126,503.103,424.41,506.389" fill="#5A5A5A" style="stroke:#5A5A5A;stroke-width:1;stroke-linejoin:miter;stroke-miterlimit:10;"/><text x="399" y="473.85" fill="#333" font-size="11" textLength="66.021" font-family="'Segoe UI'">A 崩溃被摘除</text></g><!--link lb2 to b2--><g class="link" data-entity-1="ent0015" data-entity-2="ent0017" id="lnk21" data-source-line="56" data-link-type="dependency"><path d="M412.95,324.709 C421.26,332.949 430.68,343.589 437,354.669 C461.86,398.259 462.59,413.009 470,462.639 C470.92,468.789 471.63,470.639 470,476.639 C467.09,487.359 463.761,493.981 458.091,502.411" style="stroke:#5A5A5A;stroke-width:1;" fill="none" id="lb2-to-b2"/><polygon points="455.3,506.559,463.642,501.324,458.091,502.411,457.004,496.859,455.3,506.559" fill="#5A5A5A" style="stroke:#5A5A5A;stroke-width:1;stroke-linejoin:miter;stroke-miterlimit:10;"/><text x="466" y="419.87" fill="#333" font-size="11" textLength="109.36" font-family="'Segoe UI'">重试 → B(自动绕过 A)</text></g><!--link left to right--><?plantuml-src bPHhJnDD5CVVzrCSwmkH59zsYoZxn2TkRz7461FnbHepxGxjo393TWT9D2JYXPjQm1jUY8-QYYYHQZGYakXtCTtfyYsSdLtAKZ3gz4Mtv_pd_C-P-NNty0eUn31a8K9ZpW2XGyX6Wr14fO6opOQfcMKMis5lGQs8mgaWauq4p_t8Sl2Et8vmMC-cs8PKCf8mSJyQjdY1KNuIoMxYft6POJXpF1uH6RRDHi9k3Xh-fptfxmy5QRLs4vmcbp6aKj6sS8aZMhOmN8a1P7PCVgZGMyZw6MQRs0wZXupUT2RVYlPLI6c0OiU1b8n56aaLj5xPI10BlBNOQCITCluhuq8Xa-zfDyudCzt9v7QJWzbkenKBJ9BI9BOFZX9wKOwdc-GIaJMWYFa8nlI8XVjvmYRb2e_5EE5ozcDzVQV0hJrnLvurljtItKzlnDVhxcmr8HQccjEVnTKnRt5iO-AEUFXUpBmGKxSIOlvvaDYuEYCULMNEgp_mJO_u2zpLHRsrDuZ5E2jZ2Poj1juwztXdPqlP8UPVx-_iF4STUPg4KK35KafBGtDzpbrvuYuiWG6DBzDnG0xuK_Zdb3-SF_olHIZMSyYfO5ELtsQGjT2mYI7BJAnsbagf5jDjqXEPe7OnKAHpFUqA0tuip4DmGagBb3JNirEQaT9xIkENo-KAwNotqlWDTCa_2UtwJrdfm1cpd7zAoB9Qi-l1x6g3BzhSW7ozjrfltl_WJhu7GmdGLbxLCy8ElPVBOkxHnkDQgym1NtOWb0NN1Z_6xq96AHIGHSOv6mJM3yNjiqaQTOYBoRd6bplUIishZuSNj2SUvlrAxlUR6o_M0rg0KC89iYIMIe6fgJpaZz40qf2NcOzw2wdVyxAfx90MYXUllYe-NFCcthgtRxgpoua0PBU-rdmtfMv0uRvv2N-BY_PRNBG_nqNx0roqDboq22vQ6ouN1Z57-fLBsFQfIK398fZo2yIKZsZ86GrlVgi4qdO3Q2kl77u5K9ii2b27V_pJIytr1zxt2J3sxmhKziaaK23kV_RRK6Cacay_YUehjtQZEJiUAXhhLR7mrdiz9gkATpLtvQMON6qkrnjh_qiEtCMbA7hrDOXS7xWJpnjhrU0LjIj_wYNITRP2J1FJymeIEPhw_Wa0?></g></svg>