<?xml version="1.0" encoding="UTF-8" standalone="no"?>
<!DOCTYPE svg PUBLIC "-//W3C//DTD SVG 1.1//EN"
 "http://www.w3.org/Graphics/SVG/1.1/DTD/svg11.dtd">
<!-- Generated by graphviz version 2.43.0 (0)
 -->
<!-- Title: registry_bidirectional Pages: 1 -->
<svg width="769pt" height="203pt"
 viewBox="0.00 0.00 769.00 203.00" xmlns="http://www.w3.org/2000/svg" xmlns:xlink="http://www.w3.org/1999/xlink">
<g id="graph0" class="graph" transform="scale(1 1) rotate(0) translate(4 199)">
<title>registry_bidirectional</title>
<g id="clust1" class="cluster">
<title>cluster_meta</title>
<path fill="#fbf0e2" stroke="#b0781e" d="M20,-57C20,-57 243,-57 243,-57 249,-57 255,-63 255,-69 255,-69 255,-119 255,-119 255,-125 249,-131 243,-131 243,-131 20,-131 20,-131 14,-131 8,-125 8,-119 8,-119 8,-69 8,-69 8,-63 14,-57 20,-57"/>
<text text-anchor="middle" x="92" y="-116.6" font-family="Noto Sans CJK SC" font-size="13.00">#metaBySession（正向）</text>
</g>
<g id="clust2" class="cluster">
<title>cluster_bydev</title>
<path fill="#eaf5ea" stroke="#4e7a2c" d="M591,-57C591,-57 749,-57 749,-57 755,-57 761,-63 761,-69 761,-69 761,-119 761,-119 761,-125 755,-131 749,-131 749,-131 591,-131 591,-131 585,-131 579,-125 579,-119 579,-119 579,-69 579,-69 579,-63 585,-57 591,-57"/>
<text text-anchor="middle" x="670" y="-116.6" font-family="Noto Sans CJK SC" font-size="13.00">#sessionsByDevice（反向）</text>
</g>
<!-- meta_key -->
<g id="node1" class="node">
<title>meta_key</title>
<path fill="#ffffff" stroke="#b0781e" d="M235,-101C235,-101 28,-101 28,-101 22,-101 16,-95 16,-89 16,-89 16,-77 16,-77 16,-71 22,-65 28,-65 28,-65 235,-65 235,-65 241,-65 247,-71 247,-77 247,-77 247,-89 247,-89 247,-95 241,-101 235,-101"/>
<text text-anchor="middle" x="131.5" y="-86.4" font-family="Noto Sans CJK SC" font-size="12.00">session_id → SessionMeta</text>
<text text-anchor="middle" x="131.5" y="-73.4" font-family="Noto Sans CJK SC" font-size="12.00">（id · device · conn · time · log）</text>
</g>
<!-- meta_shape -->
<g id="node2" class="node">
<title>meta_shape</title>
<path fill="#dce9fb" stroke="#2c5f8a" d="M436,-101C436,-101 373,-101 373,-101 367,-101 361,-95 361,-89 361,-89 361,-77 361,-77 361,-71 367,-65 373,-65 373,-65 436,-65 436,-65 442,-65 448,-71 448,-77 448,-77 448,-89 448,-89 448,-95 442,-101 436,-101"/>
<text text-anchor="middle" x="404.5" y="-86.4" font-family="Noto Sans CJK SC" font-size="12.00">SessionMeta</text>
<text text-anchor="middle" x="404.5" y="-73.4" font-family="Noto Sans CJK SC" font-size="12.00">(唯一副本)</text>
</g>
<!-- meta_key&#45;&gt;meta_shape -->
<g id="edge1" class="edge">
<title>meta_key&#45;&gt;meta_shape</title>
<path fill="none" stroke="#b0781e" d="M247.04,-83C283.4,-83 321.84,-83 351.51,-83"/>
<polygon fill="#b0781e" stroke="#b0781e" points="351.82,-86.15 360.82,-83 351.82,-79.85 351.82,-86.15"/>
<text text-anchor="middle" x="304" y="-98.2" font-family="Noto Sans CJK SC" font-size="11.00" fill="#b0781e">正向索引</text>
<text text-anchor="middle" x="304" y="-86.2" font-family="Noto Sans CJK SC" font-size="11.00" fill="#b0781e">O(1) 取元数据</text>
</g>
<!-- dev_key -->
<g id="node3" class="node">
<title>dev_key</title>
<path fill="#ffffff" stroke="#4e7a2c" d="M711,-101C711,-101 628,-101 628,-101 622,-101 616,-95 616,-89 616,-89 616,-77 616,-77 616,-71 622,-65 628,-65 628,-65 711,-65 711,-65 717,-65 723,-71 723,-77 723,-77 723,-89 723,-89 723,-95 717,-101 711,-101"/>
<text text-anchor="middle" x="669.5" y="-86.4" font-family="Noto Sans CJK SC" font-size="12.00">deviceName</text>
<text text-anchor="middle" x="669.5" y="-73.4" font-family="Noto Sans CJK SC" font-size="12.00">Set&lt;session_id&gt;</text>
</g>
<!-- meta_shape&#45;&gt;dev_key -->
<g id="edge2" class="edge">
<title>meta_shape&#45;&gt;dev_key</title>
<path fill="none" stroke="#4e7a2c" d="M448.05,-83C490.93,-83 557.58,-83 606.37,-83"/>
<polygon fill="#4e7a2c" stroke="#4e7a2c" points="606.57,-86.15 615.57,-83 606.57,-79.85 606.57,-86.15"/>
<text text-anchor="middle" x="517.5" y="-98.2" font-family="Noto Sans CJK SC" font-size="11.00" fill="#4e7a2c">反向索引</text>
<text text-anchor="middle" x="517.5" y="-86.2" font-family="Noto Sans CJK SC" font-size="11.00" fill="#4e7a2c">设备名 → 会话集合</text>
</g>
<!-- q_session -->
<g id="node4" class="node">
<title>q_session</title>
<polygon fill="#fff3cc" stroke="#b08a1e" points="192,-195 65,-195 65,-159 198,-159 198,-189 192,-195"/>
<polyline fill="none" stroke="#b08a1e" points="192,-195 192,-189 "/>
<polyline fill="none" stroke="#b08a1e" points="198,-189 192,-189 "/>
<text text-anchor="middle" x="131.5" y="-174.2" font-family="Noto Sans CJK SC" font-size="11.00">getBySession(&quot;ssh_1&quot;)</text>
</g>
<!-- q_session&#45;&gt;meta_key -->
<g id="edge3" class="edge">
<title>q_session&#45;&gt;meta_key</title>
<path fill="none" stroke="#666666" stroke-dasharray="5,2" d="M131.5,-158.98C131.5,-142.77 131.5,-126.57 131.5,-110.36"/>
<polygon fill="#666666" stroke="#666666" points="134.65,-110.36 131.5,-101.36 128.35,-110.36 134.65,-110.36"/>
</g>
<!-- q_device -->
<g id="node5" class="node">
<title>q_device</title>
<polygon fill="#fff3cc" stroke="#b08a1e" points="194.5,-36 62.5,-36 62.5,0 200.5,0 200.5,-30 194.5,-36"/>
<polyline fill="none" stroke="#b08a1e" points="194.5,-36 194.5,-30 "/>
<polyline fill="none" stroke="#b08a1e" points="200.5,-30 194.5,-30 "/>
<text text-anchor="middle" x="131.5" y="-15.2" font-family="Noto Sans CJK SC" font-size="11.00">getByDevice(&quot;board&#45;a&quot;)</text>
</g>
<!-- q_device&#45;&gt;dev_key -->
<g id="edge4" class="edge">
<title>q_device&#45;&gt;dev_key</title>
<path fill="none" stroke="#666666" stroke-dasharray="5,2" d="M200.6,-24.33C264.55,-30.46 362.88,-40.38 448,-51 501.57,-57.69 562.27,-66.59 606.4,-73.31"/>
<polygon fill="#666666" stroke="#666666" points="606.19,-76.47 615.56,-74.71 607.14,-70.24 606.19,-76.47"/>
</g>
</g>
</svg>
