<?xml version="1.0" encoding="UTF-8" standalone="no"?>
<!DOCTYPE svg PUBLIC "-//W3C//DTD SVG 1.1//EN"
 "http://www.w3.org/Graphics/SVG/1.1/DTD/svg11.dtd">
<!-- Generated by graphviz version 2.43.0 (0)
 -->
<!-- Title: session_open Pages: 1 -->
<svg width="442pt" height="507pt"
 viewBox="0.00 0.00 442.00 507.00" xmlns="http://www.w3.org/2000/svg" xmlns:xlink="http://www.w3.org/1999/xlink">
<g id="graph0" class="graph" transform="scale(1 1) rotate(0) translate(4 503)">
<title>session_open</title>
<g id="clust1" class="cluster">
<title>cluster_open</title>
<path fill="#f0f4fa" stroke="#3b6ea5" d="M20,-197C20,-197 242,-197 242,-197 248,-197 254,-203 254,-209 254,-209 254,-479 254,-479 254,-485 248,-491 242,-491 242,-491 20,-491 20,-491 14,-491 8,-485 8,-479 8,-479 8,-209 8,-209 8,-203 14,-197 20,-197"/>
<text text-anchor="middle" x="117" y="-475.8" font-family="Noto Sans CJK SC" font-size="14.00">open / login handler（工具层）</text>
</g>
<g id="clust2" class="cluster">
<title>cluster_infra</title>
<path fill="#eaf5ea" stroke="#4e7a2c" d="M42,-8C42,-8 366,-8 366,-8 372,-8 378,-14 378,-20 378,-20 378,-155 378,-155 378,-161 372,-167 366,-167 366,-167 42,-167 42,-167 36,-167 30,-161 30,-155 30,-155 30,-20 30,-20 30,-14 36,-8 42,-8"/>
<text text-anchor="middle" x="204" y="-151.8" font-family="Noto Sans CJK SC" font-size="14.00">ShellSessionStore + SessionRegistry（基础设施层）</text>
</g>
<!-- step_device -->
<g id="node1" class="node">
<title>step_device</title>
<path fill="#d6e4f0" stroke="#2c5f8a" d="M234,-460C234,-460 28,-460 28,-460 22,-460 16,-454 16,-448 16,-448 16,-436 16,-436 16,-430 22,-424 28,-424 28,-424 234,-424 234,-424 240,-424 246,-430 246,-436 246,-436 246,-448 246,-448 246,-454 240,-460 234,-460"/>
<text text-anchor="middle" x="131" y="-445.4" font-family="Noto Sans CJK SC" font-size="12.00">① 解析 deviceName</text>
<text text-anchor="middle" x="131" y="-432.4" font-family="Noto Sans CJK SC" font-size="12.00">args.device ?? env.DEVICE ?? &quot;default&quot;</text>
</g>
<!-- step_open -->
<g id="node2" class="node">
<title>step_open</title>
<path fill="#d6e4f0" stroke="#2c5f8a" d="M189,-387C189,-387 73,-387 73,-387 67,-387 61,-381 61,-375 61,-375 61,-363 61,-363 61,-357 67,-351 73,-351 73,-351 189,-351 189,-351 195,-351 201,-357 201,-363 201,-363 201,-375 201,-375 201,-381 195,-387 189,-387"/>
<text text-anchor="middle" x="131" y="-372.4" font-family="Noto Sans CJK SC" font-size="12.00">② 创建 Transport 实例</text>
<text text-anchor="middle" x="131" y="-359.4" font-family="Noto Sans CJK SC" font-size="12.00">shell.open() 建立连接</text>
</g>
<!-- step_device&#45;&gt;step_open -->
<g id="edge1" class="edge">
<title>step_device&#45;&gt;step_open</title>
<path fill="none" stroke="#666666" d="M131,-423.81C131,-415.53 131,-405.41 131,-396.19"/>
<polygon fill="#666666" stroke="#666666" points="134.15,-396.03 131,-387.03 127.85,-396.03 134.15,-396.03"/>
</g>
<!-- step_peek -->
<g id="node3" class="node">
<title>step_peek</title>
<path fill="#d6e4f0" stroke="#2c5f8a" d="M187.5,-314C187.5,-314 74.5,-314 74.5,-314 68.5,-314 62.5,-308 62.5,-302 62.5,-302 62.5,-290 62.5,-290 62.5,-284 68.5,-278 74.5,-278 74.5,-278 187.5,-278 187.5,-278 193.5,-278 199.5,-284 199.5,-290 199.5,-290 199.5,-302 199.5,-302 199.5,-308 193.5,-314 187.5,-314"/>
<text text-anchor="middle" x="131" y="-299.4" font-family="Noto Sans CJK SC" font-size="12.00">③ peekNextId()</text>
<text text-anchor="middle" x="131" y="-286.4" font-family="Noto Sans CJK SC" font-size="12.00">预览下一个 session_id</text>
</g>
<!-- step_open&#45;&gt;step_peek -->
<g id="edge2" class="edge">
<title>step_open&#45;&gt;step_peek</title>
<path fill="none" stroke="#666666" d="M131,-350.81C131,-342.53 131,-332.41 131,-323.19"/>
<polygon fill="#666666" stroke="#666666" points="134.15,-323.03 131,-314.03 127.85,-323.03 134.15,-323.03"/>
</g>
<!-- step_log -->
<g id="node4" class="node">
<title>step_log</title>
<path fill="#d6e4f0" stroke="#2c5f8a" d="M190.5,-241C190.5,-241 71.5,-241 71.5,-241 65.5,-241 59.5,-235 59.5,-229 59.5,-229 59.5,-217 59.5,-217 59.5,-211 65.5,-205 71.5,-205 71.5,-205 190.5,-205 190.5,-205 196.5,-205 202.5,-211 202.5,-217 202.5,-217 202.5,-229 202.5,-229 202.5,-235 196.5,-241 190.5,-241"/>
<text text-anchor="middle" x="131" y="-226.4" font-family="Noto Sans CJK SC" font-size="12.00">④ enableFromEnv()</text>
<text text-anchor="middle" x="131" y="-213.4" font-family="Noto Sans CJK SC" font-size="12.00">用预览 ID 建立日志文件</text>
</g>
<!-- step_peek&#45;&gt;step_log -->
<g id="edge3" class="edge">
<title>step_peek&#45;&gt;step_log</title>
<path fill="none" stroke="#666666" d="M131,-277.81C131,-269.53 131,-259.41 131,-250.19"/>
<polygon fill="#666666" stroke="#666666" points="134.15,-250.03 131,-241.03 127.85,-250.03 134.15,-250.03"/>
</g>
<!-- store_create -->
<g id="node5" class="node">
<title>store_create</title>
<path fill="#dcebdd" stroke="#4e7a2c" d="M189.5,-136C189.5,-136 72.5,-136 72.5,-136 66.5,-136 60.5,-130 60.5,-124 60.5,-124 60.5,-112 60.5,-112 60.5,-106 66.5,-100 72.5,-100 72.5,-100 189.5,-100 189.5,-100 195.5,-100 201.5,-106 201.5,-112 201.5,-112 201.5,-124 201.5,-124 201.5,-130 195.5,-136 189.5,-136"/>
<text text-anchor="middle" x="131" y="-121.4" font-family="Noto Sans CJK SC" font-size="12.00">⑤ store.create()</text>
<text text-anchor="middle" x="131" y="-108.4" font-family="Noto Sans CJK SC" font-size="12.00">生成 ID + 存实例 + 建锁</text>
</g>
<!-- step_log&#45;&gt;store_create -->
<g id="edge4" class="edge">
<title>step_log&#45;&gt;store_create</title>
<path fill="none" stroke="#666666" d="M129.24,-204.93C128.73,-199.23 128.25,-192.85 128,-187 127.41,-173.17 127.99,-157.76 128.79,-145.11"/>
<polygon fill="#666666" stroke="#666666" points="131.94,-145.25 129.43,-136.05 125.65,-144.8 131.94,-145.25"/>
<text text-anchor="middle" x="189.5" y="-178.2" font-family="Noto Sans CJK SC" font-size="11.00">构造 CreateSessionMeta</text>
</g>
<!-- registry_reg -->
<g id="node6" class="node">
<title>registry_reg</title>
<path fill="#f5e3c4" stroke="#b0781e" d="M182,-52C182,-52 80,-52 80,-52 74,-52 68,-46 68,-40 68,-40 68,-28 68,-28 68,-22 74,-16 80,-16 80,-16 182,-16 182,-16 188,-16 194,-22 194,-28 194,-28 194,-40 194,-40 194,-46 188,-52 182,-52"/>
<text text-anchor="middle" x="131" y="-37.4" font-family="Noto Sans CJK SC" font-size="12.00">⑥ registry.register()</text>
<text text-anchor="middle" x="131" y="-24.4" font-family="Noto Sans CJK SC" font-size="12.00">写双向索引 + 日志</text>
</g>
<!-- store_create&#45;&gt;registry_reg -->
<g id="edge5" class="edge">
<title>store_create&#45;&gt;registry_reg</title>
<path fill="none" stroke="#b0781e" d="M131,-99.61C131,-88.45 131,-73.74 131,-61.18"/>
<polygon fill="#b0781e" stroke="#b0781e" points="134.15,-61.08 131,-52.08 127.85,-61.08 134.15,-61.08"/>
<text text-anchor="middle" x="159.5" y="-73.2" font-family="Noto Sans CJK SC" font-size="11.00" fill="#b0781e">注册元数据</text>
</g>
<!-- result -->
<g id="node7" class="node">
<title>result</title>
<path fill="#fff3cc" stroke="#b08a1e" d="M422,-460C422,-460 294,-460 294,-460 288,-460 282,-454 282,-448 282,-448 282,-436 282,-436 282,-430 288,-424 294,-424 294,-424 422,-424 422,-424 428,-424 434,-430 434,-436 434,-436 434,-448 434,-448 434,-454 428,-460 422,-460"/>
<text text-anchor="middle" x="358" y="-445.4" font-family="Noto Sans CJK SC" font-size="12.00">返回 session_id 给调用方</text>
<text text-anchor="middle" x="358" y="-432.4" font-family="Noto Sans CJK SC" font-size="12.00">（如 &quot;ssh_1&quot;）</text>
</g>
<!-- registry_reg&#45;&gt;result -->
<g id="edge6" class="edge">
<title>registry_reg&#45;&gt;result</title>
<path fill="none" stroke="#666666" stroke-dasharray="5,2" d="M170.22,-52.07C179.53,-57.1 189.05,-63.13 197,-70 266.54,-130.11 281,-167.08 281,-259 281,-370 281,-370 281,-370 281,-390.66 296.16,-406.96 313.03,-418.71"/>
<polygon fill="#666666" stroke="#666666" points="311.59,-421.53 320.85,-423.79 315.02,-416.24 311.59,-421.53"/>
</g>
</g>
</svg>
