<svg xmlns="http://www.w3.org/2000/svg" xmlns:xlink="http://www.w3.org/1999/xlink" version="1.1" data-diagram-type="ACTIVITY" style="width:1178px;height:1192px;background:#FFFFFF;" width="1178px" height="1192px" viewBox="0 0 1178 1192" zoomAndPan="magnify" preserveAspectRatio="none" contentStyleType="text/css"><?plantuml 1.2026.7beta11?><defs/><g font-family="sans-serif" lengthAdjust="spacing"><g class="title" data-source-line="20"><text x="208.831" y="35.421" fill="#000" font-size="22" textLength="758.464" font-weight="700" font-family="'Segoe UI'">establishSession 建链流程:先挂旁路再发命令, 轮询解析 + 双重失败检测</text></g><ellipse cx="584.063" cy="66.609" rx="10" ry="10" fill="#FFF" style="stroke:#000;stroke-width:1;"/><rect x="532.271" y="96.609" width="103.584" height="33.969" fill="#F7F9FC" style="stroke:#7A93BE;stroke-width:1;" rx="5" ry="5"/><text x="542.271" y="117.748" fill="#1F2933" font-size="12" textLength="83.584" font-family="'Segoe UI'">preBuffer = []</text><rect x="417.529" y="150.578" width="333.067" height="47.938" fill="#F7F9FC" style="stroke:#7A93BE;stroke-width:1;" rx="5" ry="5"/><text x="427.529" y="171.717" fill="#1F2933" font-size="12" textLength="198.803" font-family="'Segoe UI'">detach = attachRawReceiver(cb)</text><text x="435.158" y="185.686" fill="#1F2933" font-size="12" textLength="305.438" font-family="'Segoe UI'">cb: session 已建 → consume; 未建 → push preBuffer</text><path d="M677.508,214.785 L677.508,238.484 L657.508,242.484 L677.508,246.484 L677.508,270.184 A0,0 0 0 0 677.508,270.184 L858.641,270.184 A0,0 0 0 0 858.641,270.184 L858.641,224.785 L848.641,214.785 L677.508,214.785 A0,0 0 0 0 677.508,214.785" style="stroke:#E0B400;stroke-width:1;" fill="#FFFBE6"/><path d="M848.641,214.785 L848.641,224.785 L858.641,224.785 L848.641,214.785" style="stroke:#E0B400;stroke-width:1;" fill="#FFFBE6"/><text x="683.508" y="231.852" fill="#5C4A00" font-size="13" textLength="121.132" font-family="'Segoe UI'">若先发命令再挂旁路,</text><text x="683.508" y="246.985" fill="#5C4A00" font-size="13" textLength="160.133" font-family="'Segoe UI'">设备首帧会进文本态被污染,</text><text x="683.508" y="262.118" fill="#5C4A00" font-size="13" textLength="104" font-family="'Segoe UI'">协议层永远收不到</text><rect x="510.617" y="218.516" width="146.891" height="47.938" fill="#F7F9FC" style="stroke:#7A93BE;stroke-width:1;" rx="5" ry="5"/><text x="520.617" y="239.654" fill="#1F2933" font-size="12" textLength="126.891" font-family="'Segoe UI'">shell.write(startCmd)</text><text x="520.617" y="253.623" fill="#1F2933" font-size="12" textLength="7.629" font-family="'Segoe UI'">  </text><text x="528.246" y="253.623" fill="#1F2933" font-size="12" textLength="72.001" font-weight="700" font-family="'Segoe UI'">挂旁路后再发</text><polygon points="32,334.184,226.589,334.184,238.589,346.988,226.589,359.793,32,359.793,20,346.988,32,334.184" fill="#FFF3D6" style="stroke:#E0B400;stroke-width:1;stroke-linejoin:miter;stroke-miterlimit:10;"/><text x="133.295" y="370.003" fill="#333" font-size="11" textLength="22" font-family="'Segoe UI'">命中</text><text x="32" y="344.394" fill="#1F2933" font-size="11" textLength="194.589" font-family="'Segoe UI'">detectHandshakeFailure(preBuffer)</text><text x="32" y="357.199" fill="#1F2933" font-size="11" textLength="67.24" font-family="'Segoe UI'">parse 前检测</text><rect x="80.128" y="392.598" width="98.334" height="33.969" fill="#F7F9FC" style="stroke:#7A93BE;stroke-width:1;" rx="5" ry="5"/><text x="90.128" y="413.736" fill="#1F2933" font-size="12" textLength="78.334" font-family="'Segoe UI'">记 failReason</text><polygon points="270.589,334.184,468.251,334.184,480.251,346.988,468.251,359.793,270.589,359.793,258.589,346.988,270.589,334.184" fill="#FFF3D6" style="stroke:#E0B400;stroke-width:1;stroke-linejoin:miter;stroke-miterlimit:10;"/><text x="373.42" y="370.003" fill="#333" font-size="11" textLength="44" font-family="'Segoe UI'">找不到头</text><text x="270.589" y="344.394" fill="#1F2933" font-size="11" textLength="197.662" font-family="'Segoe UI'">findZmodemHeaderStart(preBuffer)</text><text x="270.589" y="357.199" fill="#1F2933" font-size="11" textLength="67.208" font-family="'Segoe UI'">定位真头 &lt; 0</text><text x="480.251" y="344.394" fill="#333" font-size="11" textLength="33" font-family="'Segoe UI'">找到头</text><rect x="653.895" y="373.787" width="280.707" height="33.969" fill="#F7F9FC" style="stroke:#7A93BE;stroke-width:1;" rx="5" ry="5"/><text x="663.895" y="394.926" fill="#1F2933" font-size="12" textLength="260.707" font-family="'Segoe UI'">Session.parse(preBuffer.slice(headerStart))</text><polygon points="696.954,491.158,891.543,491.158,903.543,503.963,891.543,516.768,696.954,516.768,684.954,503.963,696.954,491.158" fill="#FFF3D6" style="stroke:#E0B400;stroke-width:1;stroke-linejoin:miter;stroke-miterlimit:10;"/><text x="696.954" y="501.369" fill="#1F2933" font-size="11" textLength="194.589" font-family="'Segoe UI'">detectHandshakeFailure(preBuffer)</text><text x="696.954" y="514.173" fill="#1F2933" font-size="11" textLength="89.24" font-family="'Segoe UI'">parse 后再检一次</text><text x="662.954" y="501.369" fill="#333" font-size="11" textLength="22" font-family="'Segoe UI'">命中</text><text x="903.543" y="501.369" fill="#333" font-size="11" textLength="33" font-family="'Segoe UI'">未命中</text><path d="M644.233,526.768 L644.233,550.467 L624.233,554.467 L644.233,558.467 L644.233,582.166 A0,0 0 0 0 644.233,582.166 L896.383,582.166 A0,0 0 0 0 896.383,582.166 L896.383,536.768 L886.383,526.768 L644.233,526.768 A0,0 0 0 0 644.233,526.768" style="stroke:#E0B400;stroke-width:1;" fill="#FFFBE6"/><path d="M886.383,526.768 L886.383,536.768 L896.383,536.768 L886.383,526.768" style="stroke:#E0B400;stroke-width:1;" fill="#FFFBE6"/><text x="650.233" y="543.834" fill="#5C4A00" font-size="13" textLength="186.729" font-family="'Segoe UI'">sz 文件不存在时会先发合法首帧</text><text x="650.233" y="558.967" fill="#5C4A00" font-size="13" textLength="231.15" font-family="'Segoe UI'">让 parse 成功, 紧接着报错 + CAN×10</text><text x="650.233" y="574.1" fill="#5C4A00" font-size="13" textLength="208.381" font-family="'Segoe UI'">preBuffer 残留的错误信息在此命中</text><rect x="520.251" y="537.482" width="103.982" height="33.969" fill="#F7F9FC" style="stroke:#7A93BE;stroke-width:1;" rx="5" ry="5"/><text x="530.251" y="558.621" fill="#1F2933" font-size="12" textLength="83.982" font-family="'Segoe UI'">session = null</text><rect x="916.383" y="526.768" width="199.742" height="33.969" fill="#F7F9FC" style="stroke:#7A93BE;stroke-width:1;" rx="5" ry="5"/><text x="926.383" y="547.906" fill="#1F2933" font-size="12" textLength="179.742" font-family="'Segoe UI'">session.set_sender(onOutput)</text><rect x="966.44" y="595.736" width="99.629" height="33.969" fill="#F7F9FC" style="stroke:#7A93BE;stroke-width:1;" rx="5" ry="5"/><text x="976.44" y="616.875" fill="#1F2933" font-size="12" textLength="79.629" font-family="'Segoe UI'">成功, 退出循环</text><polygon points="794.248,635.705,806.248,647.705,794.248,659.705,782.248,647.705,794.248,635.705" fill="#FFF3D6" style="stroke:#E0B400;stroke-width:1;stroke-linejoin:miter;stroke-miterlimit:10;"/><polygon points="763.209,442.756,825.288,442.756,837.288,454.756,825.288,466.756,763.209,466.756,751.209,454.756,763.209,442.756" fill="#FFF3D6" style="stroke:#E0B400;stroke-width:1;stroke-linejoin:miter;stroke-miterlimit:10;"/><text x="798.248" y="476.966" fill="#333" font-size="11" font-family="'Segoe UI'">是</text><text x="763.209" y="458.564" fill="#1F2933" font-size="11" textLength="62.079" font-family="'Segoe UI'">parse 成功?</text><text x="837.288" y="452.162" fill="#333" font-size="11" font-family="'Segoe UI'">否</text><polygon points="794.248,679.705,806.248,691.705,794.248,703.705,782.248,691.705,794.248,679.705" fill="#FFF3D6" style="stroke:#E0B400;stroke-width:1;stroke-linejoin:miter;stroke-miterlimit:10;"/><rect x="535.748" y="743.705" width="96.629" height="33.969" fill="#F7F9FC" style="stroke:#7A93BE;stroke-width:1;" rx="5" ry="5"/><text x="545.748" y="764.844" fill="#1F2933" font-size="12" textLength="76.629" font-family="'Segoe UI'">sleep 100ms</text><polygon points="584.063,290.184,596.063,302.184,584.063,314.184,572.063,302.184,584.063,290.184" fill="#FFF3D6" style="stroke:#E0B400;stroke-width:1;stroke-linejoin:miter;stroke-miterlimit:10;"/><polygon points="556.531,797.674,611.595,797.674,623.595,809.674,611.595,821.674,556.531,821.674,544.531,809.674,556.531,797.674" fill="#FFF3D6" style="stroke:#E0B400;stroke-width:1;stroke-linejoin:miter;stroke-miterlimit:10;"/><text x="588.063" y="831.884" fill="#333" font-size="11" textLength="61.993" font-family="'Segoe UI'">是, 超时退出</text><text x="556.531" y="813.482" fill="#1F2933" font-size="11" textLength="55.064" font-family="'Segoe UI'">未超时 5s?</text><text x="623.595" y="807.08" fill="#333" font-size="11" textLength="61.993" font-family="'Segoe UI'">否, 继续轮询</text><polygon points="548.036,853.384,620.089,853.384,632.089,865.384,620.089,877.384,548.036,877.384,536.036,865.384,548.036,853.384" fill="#FFF3D6" style="stroke:#E0B400;stroke-width:1;stroke-linejoin:miter;stroke-miterlimit:10;"/><text x="548.036" y="869.192" fill="#1F2933" font-size="11" textLength="72.053" font-family="'Segoe UI'">session 为空?</text><text x="525.036" y="862.79" fill="#333" font-size="11" font-family="'Segoe UI'">是</text><text x="632.089" y="862.79" fill="#333" font-size="11" font-family="'Segoe UI'">否</text><polygon points="375.16,887.384,463.804,887.384,475.804,899.384,463.804,911.384,375.16,911.384,363.16,899.384,375.16,887.384" fill="#FFF3D6" style="stroke:#E0B400;stroke-width:1;stroke-linejoin:miter;stroke-miterlimit:10;"/><text x="375.16" y="903.192" fill="#1F2933" font-size="11" textLength="88.644" font-family="'Segoe UI'">failReason 非空?</text><text x="352.16" y="896.79" fill="#333" font-size="11" font-family="'Segoe UI'">是</text><text x="475.804" y="896.79" fill="#333" font-size="11" font-family="'Segoe UI'">否</text><rect x="159.145" y="921.384" width="271.93" height="47.938" fill="#F7F9FC" style="stroke:#7A93BE;stroke-width:1;" rx="5" ry="5"/><text x="169.145" y="942.523" fill="#1F2933" font-size="12" textLength="50.625" font-family="'Segoe UI'">detach()</text><text x="169.145" y="956.492" fill="#1F2933" font-size="12" textLength="251.93" font-family="'Segoe UI'">throw "handshake failed: &lt;原因> &lt;预览>"</text><rect x="451.075" y="921.384" width="185.557" height="47.938" fill="#F7F9FC" style="stroke:#7A93BE;stroke-width:1;" rx="5" ry="5"/><text x="461.075" y="942.523" fill="#1F2933" font-size="12" textLength="50.625" font-family="'Segoe UI'">detach()</text><text x="461.075" y="956.492" fill="#1F2933" font-size="12" textLength="165.557" font-family="'Segoe UI'">throw "handshake timeout"</text><polygon points="419.482,975.322,431.482,987.322,419.482,999.322,407.482,987.322,419.482,975.322" fill="#FFF3D6" style="stroke:#E0B400;stroke-width:1;stroke-linejoin:miter;stroke-miterlimit:10;"/><rect x="666.632" y="887.384" width="164.024" height="33.969" fill="#F7F9FC" style="stroke:#7A93BE;stroke-width:1;" rx="5" ry="5"/><text x="676.632" y="908.523" fill="#1F2933" font-size="12" textLength="144.024" font-family="'Segoe UI'">返回 { session, detach }</text><polygon points="584.063,1005.322,596.063,1017.322,584.063,1029.322,572.063,1017.322,584.063,1005.322" fill="#FFF3D6" style="stroke:#E0B400;stroke-width:1;stroke-linejoin:miter;stroke-miterlimit:10;"/><ellipse cx="584.063" cy="1060.322" rx="11" ry="11" fill="none" style="stroke:#000;stroke-width:1;"/><ellipse cx="584.063" cy="1060.322" rx="6" ry="6" fill="#FFF" style="stroke:#000;stroke-width:1;"/><line x1="584.063" y1="76.609" x2="584.063" y2="96.609" style="stroke:#5A5A5A;stroke-width:1;"/><polygon points="580.063,86.609,584.063,96.609,588.063,86.609,584.063,90.609" fill="#5A5A5A" style="stroke:#5A5A5A;stroke-width:1;stroke-linejoin:miter;stroke-miterlimit:10;"/><line x1="584.063" y1="130.578" x2="584.063" y2="150.578" style="stroke:#5A5A5A;stroke-width:1;"/><polygon points="580.063,140.578,584.063,150.578,588.063,140.578,584.063,144.578" fill="#5A5A5A" style="stroke:#5A5A5A;stroke-width:1;stroke-linejoin:miter;stroke-miterlimit:10;"/><line x1="584.063" y1="198.516" x2="584.063" y2="218.516" style="stroke:#5A5A5A;stroke-width:1;"/><polygon points="580.063,208.516,584.063,218.516,588.063,208.516,584.063,212.516" fill="#5A5A5A" style="stroke:#5A5A5A;stroke-width:1;stroke-linejoin:miter;stroke-miterlimit:10;"/><line x1="1016.255" y1="560.736" x2="1016.255" y2="595.736" style="stroke:#5A5A5A;stroke-width:1;"/><polygon points="1012.255,585.736,1016.255,595.736,1020.255,585.736,1016.255,589.736" fill="#5A5A5A" style="stroke:#5A5A5A;stroke-width:1;stroke-linejoin:miter;stroke-miterlimit:10;"/><line x1="684.954" y1="503.963" x2="572.242" y2="503.963" style="stroke:#5A5A5A;stroke-width:1;"/><line x1="572.242" y1="503.963" x2="572.242" y2="537.482" style="stroke:#5A5A5A;stroke-width:1;"/><polygon points="568.242,527.482,572.242,537.482,576.242,527.482,572.242,531.482" fill="#5A5A5A" style="stroke:#5A5A5A;stroke-width:1;stroke-linejoin:miter;stroke-miterlimit:10;"/><line x1="903.543" y1="503.963" x2="1016.255" y2="503.963" style="stroke:#5A5A5A;stroke-width:1;"/><line x1="1016.255" y1="503.963" x2="1016.255" y2="526.768" style="stroke:#5A5A5A;stroke-width:1;"/><polygon points="1012.255,516.768,1016.255,526.768,1020.255,516.768,1016.255,520.768" fill="#5A5A5A" style="stroke:#5A5A5A;stroke-width:1;stroke-linejoin:miter;stroke-miterlimit:10;"/><line x1="572.242" y1="571.451" x2="572.242" y2="647.705" style="stroke:#5A5A5A;stroke-width:1;"/><line x1="572.242" y1="647.705" x2="782.248" y2="647.705" style="stroke:#5A5A5A;stroke-width:1;"/><polygon points="772.248,643.705,782.248,647.705,772.248,651.705,776.248,647.705" fill="#5A5A5A" style="stroke:#5A5A5A;stroke-width:1;stroke-linejoin:miter;stroke-miterlimit:10;"/><line x1="1016.255" y1="629.705" x2="1016.255" y2="647.705" style="stroke:#5A5A5A;stroke-width:1;"/><line x1="1016.255" y1="647.705" x2="806.248" y2="647.705" style="stroke:#5A5A5A;stroke-width:1;"/><polygon points="816.248,643.705,806.248,647.705,816.248,651.705,812.248,647.705" fill="#5A5A5A" style="stroke:#5A5A5A;stroke-width:1;stroke-linejoin:miter;stroke-miterlimit:10;"/><line x1="794.248" y1="466.756" x2="794.248" y2="491.158" style="stroke:#5A5A5A;stroke-width:1;"/><polygon points="790.248,481.158,794.248,491.158,798.248,481.158,794.248,485.158" fill="#5A5A5A" style="stroke:#5A5A5A;stroke-width:1;stroke-linejoin:miter;stroke-miterlimit:10;"/><line x1="837.288" y1="454.756" x2="1130.126" y2="454.756" style="stroke:#5A5A5A;stroke-width:1;"/><polygon points="1126.126,565.432,1130.126,575.432,1134.126,565.432,1130.126,569.432" fill="#5A5A5A" style="stroke:#5A5A5A;stroke-width:1;stroke-linejoin:miter;stroke-miterlimit:10;"/><line x1="1130.126" y1="454.756" x2="1130.126" y2="691.705" style="stroke:#5A5A5A;stroke-width:1;"/><line x1="1130.126" y1="691.705" x2="806.248" y2="691.705" style="stroke:#5A5A5A;stroke-width:1;"/><polygon points="816.248,687.705,806.248,691.705,816.248,695.705,812.248,691.705" fill="#5A5A5A" style="stroke:#5A5A5A;stroke-width:1;stroke-linejoin:miter;stroke-miterlimit:10;"/><line x1="794.248" y1="659.705" x2="794.248" y2="679.705" style="stroke:#5A5A5A;stroke-width:1;"/><polygon points="790.248,669.705,794.248,679.705,798.248,669.705,794.248,673.705" fill="#5A5A5A" style="stroke:#5A5A5A;stroke-width:1;stroke-linejoin:miter;stroke-miterlimit:10;"/><line x1="794.248" y1="407.756" x2="794.248" y2="442.756" style="stroke:#5A5A5A;stroke-width:1;"/><polygon points="790.248,432.756,794.248,442.756,798.248,432.756,794.248,436.756" fill="#5A5A5A" style="stroke:#5A5A5A;stroke-width:1;stroke-linejoin:miter;stroke-miterlimit:10;"/><line x1="129.295" y1="359.793" x2="129.295" y2="392.598" style="stroke:#5A5A5A;stroke-width:1;"/><polygon points="125.295,382.598,129.295,392.598,133.295,382.598,129.295,386.598" fill="#5A5A5A" style="stroke:#5A5A5A;stroke-width:1;stroke-linejoin:miter;stroke-miterlimit:10;"/><line x1="129.295" y1="426.566" x2="129.295" y2="723.705" style="stroke:#5A5A5A;stroke-width:1;"/><polygon points="125.295,713.705,129.295,723.705,133.295,713.705,129.295,717.705" fill="#5A5A5A" style="stroke:#5A5A5A;stroke-width:1;stroke-linejoin:miter;stroke-miterlimit:10;"/><line x1="369.42" y1="359.793" x2="369.42" y2="723.705" style="stroke:#5A5A5A;stroke-width:1;"/><polygon points="365.42,713.705,369.42,723.705,373.42,713.705,369.42,717.705" fill="#5A5A5A" style="stroke:#5A5A5A;stroke-width:1;stroke-linejoin:miter;stroke-miterlimit:10;"/><line x1="238.589" y1="346.988" x2="258.589" y2="346.988" style="stroke:#5A5A5A;stroke-width:1;"/><polygon points="248.589,342.988,258.589,346.988,248.589,350.988,252.589,346.988" fill="#5A5A5A" style="stroke:#5A5A5A;stroke-width:1;stroke-linejoin:miter;stroke-miterlimit:10;"/><line x1="584.063" y1="314.184" x2="584.063" y2="319.184" style="stroke:#5A5A5A;stroke-width:1;"/><line x1="584.063" y1="319.184" x2="129.295" y2="319.184" style="stroke:#5A5A5A;stroke-width:1;"/><line x1="129.295" y1="319.184" x2="129.295" y2="334.184" style="stroke:#5A5A5A;stroke-width:1;"/><polygon points="125.295,324.184,129.295,334.184,133.295,324.184,129.295,328.184" fill="#5A5A5A" style="stroke:#5A5A5A;stroke-width:1;stroke-linejoin:miter;stroke-miterlimit:10;"/><line x1="480.251" y1="346.988" x2="794.248" y2="346.988" style="stroke:#5A5A5A;stroke-width:1;"/><line x1="794.248" y1="346.988" x2="794.248" y2="373.787" style="stroke:#5A5A5A;stroke-width:1;"/><polygon points="790.248,363.787,794.248,373.787,798.248,363.787,794.248,367.787" fill="#5A5A5A" style="stroke:#5A5A5A;stroke-width:1;stroke-linejoin:miter;stroke-miterlimit:10;"/><line x1="794.248" y1="703.705" x2="794.248" y2="723.705" style="stroke:#5A5A5A;stroke-width:1;"/><polygon points="790.248,713.705,794.248,723.705,798.248,713.705,794.248,717.705" fill="#5A5A5A" style="stroke:#5A5A5A;stroke-width:1;stroke-linejoin:miter;stroke-miterlimit:10;"/><line x1="129.295" y1="723.705" x2="794.248" y2="723.705" style="stroke:#5A5A5A;stroke-width:1;"/><line x1="584.063" y1="723.705" x2="584.063" y2="743.705" style="stroke:#5A5A5A;stroke-width:1;"/><polygon points="580.063,733.705,584.063,743.705,588.063,733.705,584.063,737.705" fill="#5A5A5A" style="stroke:#5A5A5A;stroke-width:1;stroke-linejoin:miter;stroke-miterlimit:10;"/><line x1="623.595" y1="809.674" x2="1148.126" y2="809.674" style="stroke:#5A5A5A;stroke-width:1;"/><polygon points="1144.126,585.432,1148.126,575.432,1152.126,585.432,1148.126,581.432" fill="#5A5A5A" style="stroke:#5A5A5A;stroke-width:1;stroke-linejoin:miter;stroke-miterlimit:10;"/><line x1="1148.126" y1="302.184" x2="1148.126" y2="809.674" style="stroke:#5A5A5A;stroke-width:1;"/><line x1="1148.126" y1="302.184" x2="596.063" y2="302.184" style="stroke:#5A5A5A;stroke-width:1;"/><polygon points="606.063,298.184,596.063,302.184,606.063,306.184,602.063,302.184" fill="#5A5A5A" style="stroke:#5A5A5A;stroke-width:1;stroke-linejoin:miter;stroke-miterlimit:10;"/><line x1="584.063" y1="777.674" x2="584.063" y2="797.674" style="stroke:#5A5A5A;stroke-width:1;"/><polygon points="580.063,787.674,584.063,797.674,588.063,787.674,584.063,791.674" fill="#5A5A5A" style="stroke:#5A5A5A;stroke-width:1;stroke-linejoin:miter;stroke-miterlimit:10;"/><line x1="584.063" y1="266.453" x2="584.063" y2="290.184" style="stroke:#5A5A5A;stroke-width:1;"/><polygon points="580.063,280.184,584.063,290.184,588.063,280.184,584.063,284.184" fill="#5A5A5A" style="stroke:#5A5A5A;stroke-width:1;stroke-linejoin:miter;stroke-miterlimit:10;"/><line x1="363.16" y1="899.384" x2="295.11" y2="899.384" style="stroke:#5A5A5A;stroke-width:1;"/><line x1="295.11" y1="899.384" x2="295.11" y2="921.384" style="stroke:#5A5A5A;stroke-width:1;"/><polygon points="291.11,911.384,295.11,921.384,299.11,911.384,295.11,915.384" fill="#5A5A5A" style="stroke:#5A5A5A;stroke-width:1;stroke-linejoin:miter;stroke-miterlimit:10;"/><line x1="475.804" y1="899.384" x2="543.854" y2="899.384" style="stroke:#5A5A5A;stroke-width:1;"/><line x1="543.854" y1="899.384" x2="543.854" y2="921.384" style="stroke:#5A5A5A;stroke-width:1;"/><polygon points="539.854,911.384,543.854,921.384,547.854,911.384,543.854,915.384" fill="#5A5A5A" style="stroke:#5A5A5A;stroke-width:1;stroke-linejoin:miter;stroke-miterlimit:10;"/><line x1="295.11" y1="969.322" x2="295.11" y2="987.322" style="stroke:#5A5A5A;stroke-width:1;"/><line x1="295.11" y1="987.322" x2="407.482" y2="987.322" style="stroke:#5A5A5A;stroke-width:1;"/><polygon points="397.482,983.322,407.482,987.322,397.482,991.322,401.482,987.322" fill="#5A5A5A" style="stroke:#5A5A5A;stroke-width:1;stroke-linejoin:miter;stroke-miterlimit:10;"/><line x1="543.854" y1="969.322" x2="543.854" y2="987.322" style="stroke:#5A5A5A;stroke-width:1;"/><line x1="543.854" y1="987.322" x2="431.482" y2="987.322" style="stroke:#5A5A5A;stroke-width:1;"/><polygon points="441.482,983.322,431.482,987.322,441.482,991.322,437.482,987.322" fill="#5A5A5A" style="stroke:#5A5A5A;stroke-width:1;stroke-linejoin:miter;stroke-miterlimit:10;"/><line x1="536.036" y1="865.384" x2="419.482" y2="865.384" style="stroke:#5A5A5A;stroke-width:1;"/><line x1="419.482" y1="865.384" x2="419.482" y2="887.384" style="stroke:#5A5A5A;stroke-width:1;"/><polygon points="415.482,877.384,419.482,887.384,423.482,877.384,419.482,881.384" fill="#5A5A5A" style="stroke:#5A5A5A;stroke-width:1;stroke-linejoin:miter;stroke-miterlimit:10;"/><line x1="632.089" y1="865.384" x2="748.644" y2="865.384" style="stroke:#5A5A5A;stroke-width:1;"/><line x1="748.644" y1="865.384" x2="748.644" y2="887.384" style="stroke:#5A5A5A;stroke-width:1;"/><polygon points="744.644,877.384,748.644,887.384,752.644,877.384,748.644,881.384" fill="#5A5A5A" style="stroke:#5A5A5A;stroke-width:1;stroke-linejoin:miter;stroke-miterlimit:10;"/><line x1="419.482" y1="999.322" x2="419.482" y2="1017.322" style="stroke:#5A5A5A;stroke-width:1;"/><line x1="419.482" y1="1017.322" x2="572.063" y2="1017.322" style="stroke:#5A5A5A;stroke-width:1;"/><polygon points="562.063,1013.322,572.063,1017.322,562.063,1021.322,566.063,1017.322" fill="#5A5A5A" style="stroke:#5A5A5A;stroke-width:1;stroke-linejoin:miter;stroke-miterlimit:10;"/><line x1="748.644" y1="921.353" x2="748.644" y2="1017.322" style="stroke:#5A5A5A;stroke-width:1;"/><line x1="748.644" y1="1017.322" x2="596.063" y2="1017.322" style="stroke:#5A5A5A;stroke-width:1;"/><polygon points="606.063,1013.322,596.063,1017.322,606.063,1021.322,602.063,1017.322" fill="#5A5A5A" style="stroke:#5A5A5A;stroke-width:1;stroke-linejoin:miter;stroke-miterlimit:10;"/><line x1="584.063" y1="821.674" x2="584.063" y2="853.384" style="stroke:#5A5A5A;stroke-width:1;"/><polygon points="580.063,843.384,584.063,853.384,588.063,843.384,584.063,847.384" fill="#5A5A5A" style="stroke:#5A5A5A;stroke-width:1;stroke-linejoin:miter;stroke-miterlimit:10;"/><line x1="584.063" y1="1029.322" x2="584.063" y2="1049.322" style="stroke:#5A5A5A;stroke-width:1;"/><polygon points="580.063,1039.322,584.063,1049.322,588.063,1039.322,584.063,1043.322" fill="#5A5A5A" style="stroke:#5A5A5A;stroke-width:1;stroke-linejoin:miter;stroke-miterlimit:10;"/><g class="legend" data-source-line="77"><rect x="772.535" y="1085.322" width="393.591" height="95.484" fill="#FFFBE6" style="stroke:#E0B400;stroke-width:1;" rx="5" ry="5"/><text x="777.535" y="1103.317" fill="#000" font-size="14" textLength="28" font-weight="700" font-family="'Segoe UI'">图例</text><text x="782.409" y="1121.614" fill="#000" font-size="14" textLength="28" font-weight="700" font-family="'Segoe UI'">形状</text><text x="908.826" y="1121.614" fill="#000" font-size="14" textLength="28" font-weight="700" font-family="'Segoe UI'">含义</text><text x="777.535" y="1137.911" fill="#000" font-size="14" font-family="'Segoe UI'"> </text><text x="781.985" y="1137.911" fill="#FFF3D5" font-size="14" textLength="43.066" font-family="'Segoe UI'">████</text><text x="829.502" y="1137.911" fill="#000" font-size="14" textLength="70" font-family="'Segoe UI'">带文字菱形</text><text x="908.402" y="1137.911" fill="#000" font-size="14" textLength="162.975" font-family="'Segoe UI'">判断节点 (if / while 条件)</text><text x="777.535" y="1154.208" fill="#000" font-size="14" font-family="'Segoe UI'"> </text><text x="781.985" y="1154.208" fill="#FFF3D6" font-size="14" textLength="21.533" font-family="'Segoe UI'">▄▄</text><text x="807.969" y="1154.208" fill="#000" font-size="14" textLength="70" font-family="'Segoe UI'">空白小菱形</text><text x="908.402" y="1154.208" fill="#000" font-size="14" textLength="248.273" font-family="'Segoe UI'">分支汇合点 (无判断语义, 仅收束多分支)</text><text x="777.535" y="1170.504" fill="#000" font-size="14" font-family="'Segoe UI'"> </text><text x="781.985" y="1170.504" fill="#F7F9FC" font-size="14" textLength="21.533" font-family="'Segoe UI'">▆▆</text><text x="807.969" y="1170.504" fill="#000" font-size="14" textLength="28" font-family="'Segoe UI'">矩形</text><text x="908.402" y="1170.504" fill="#000" font-size="14" textLength="56" font-family="'Segoe UI'">处理动作</text><line x1="777.535" y1="1108.619" x2="1161.126" y2="1108.619" style="stroke:#000;stroke-width:1;"/><line x1="777.535" y1="1124.916" x2="1161.126" y2="1124.916" style="stroke:#000;stroke-width:1;"/><line x1="777.535" y1="1141.212" x2="1161.126" y2="1141.212" style="stroke:#000;stroke-width:1;"/><line x1="777.535" y1="1157.509" x2="1161.126" y2="1157.509" style="stroke:#000;stroke-width:1;"/><line x1="777.535" y1="1173.806" x2="1161.126" y2="1173.806" style="stroke:#000;stroke-width:1;"/><line x1="777.535" y1="1108.619" x2="777.535" y2="1173.806" style="stroke:#000;stroke-width:1;"/><line x1="903.952" y1="1108.619" x2="903.952" y2="1173.806" style="stroke:#000;stroke-width:1;"/><line x1="1161.126" y1="1108.619" x2="1161.126" y2="1173.806" style="stroke:#000;stroke-width:1;"/></g><?plantuml-src bLPhJzjc5FxkNt76lYGCSHc5YYGm0INgf8b9e7tPHPD9tX0BnuvifsXT9m7Y4g10kb8ezqB3hMqIs5gQme0F-oTLtjVElzZn9OvfirKpbcA_v_wSvnppcHOd2G99aHSaJXqHf2Ily0aOuYCZmugSagAziYWhy7dOkZmQQfoFogE2D0mnNbI9H-AOAH9HeANP8uYI69yIjR0iQVqy1gqR9CCoWU--hlCeTIkAFEe4RUis_puKclQEGgjrrL8O5EuJQ6dnYYAQS4_GVkdvgBJRuOvmRorDMOaInT6wtTtHsjDNGykJJaluouwRwJWwTmG-8KlHdXgejjvf_my3RmPzpJstchruziiQgUMofw_zGwrF-l5KqTPxg_k6_1ioJ6edVpEIerSZ5gS9caY0g1e_90fgV92egY1BG2_Eou-ls9jn_MW-GAVIxE44MnqttXRez09TUaGVNPOkiWrWNEQDmfvn-9njP-0Be4iFopCBD7jglDvdpyVOctcEGy-And61f49wKh4OKgyJVlWfo0MYHECZSNpZDVDXW1yT814Yt2EABpBavm0YGm5GA_cy_GDJWlVJlqD4bjHKWWI1RRwed2LJQXpS2EXSZHDHR1nL18tuh0nw4r7JPtrzjPBCebrCVNsGuoI46XHXEAwXbZ6_ZpMxTQAQQzLWYlDND3jJFbYXnSFIN-l6zGPRcM6RhzZOkB7taftkift7fXvTM3BoUNewmKwAnlKcMpuh5HTe-eJ3Pe0PaECKaYGymWCWnC27a928TfUNeZZ48oJC2s9A8JwtCF-FPaDL0dHsmSRN3xWc9F2PYHPpPeK00ID_WhClY0E4LsKfY8S45u4P82P8qUyJSfGaxX8UoJ1eGdF3FyslbouNzCqTcdqD8MYk162pLtRoUEvtF5gdrIECxD2dqSgowhTH5OK8ySMhCVt-e6LX9cMNnD8PEhVpbLjGvi3swGHwMh1V_ozGLfCHgr9nZBtQhGMNbNY5PvqWfKGnw0fkqA9ogVS16rwwiDgPUqetZzZg6HB1uKmcpVvyOhF3OsJaZy5RQGFehm_Puhw-DSRczilBQpW_lTtzVw_YPgvQLQU6vUVr9slw-YIg6eL2wNgNZHVCqBciNOrhvRBBURK1n67vbw8RLQBzhA8LJfuiVPlIaYdDNuKWKCctF3P6PyxfrGjziL0HevKGuxnFzYzdkXS9IUA7fZcX1YjCXz6u8Dhf66TJ21kqgTXpGRKwZfXS7EeNENkj-CqghDRZeh6KxGpy76ToeDAoKl5SFpvtYUCmnMAxEmDGtjgkeOH9sbl8PxzfSVn8GLsymYjhYaWq026wk4CtddL1gBmtQHock-g2xWouJFs4Bqr843cbsPOMI3Vi0yRrCjtOXbyhEwy1d0tvMv1pG5KrESbnehNDNLQ6XhhenbNfQZxKDDI5xmywWLxkwNDdrbFcPUdTB3mmpo4KCNT_mFwujNMzNqcxTwZ9adK1BHuWjsbkrLWwHJTeHTDPjf8pvYRqYNVWGroRd2QohLsS0Nyjv-teV19lros2hwzTqfCbZzjfjbnWfpCuBvPdjlhC2LN8OSuDKBgOmfN9jd0LhTlQ7yMo_a70MDDuLsFj73iXifDwPfhE7PKkDz4IGREX-mS0?></g></svg>