<?xml version="1.0" encoding="UTF-8" standalone="no"?>
<!DOCTYPE svg PUBLIC "-//W3C//DTD SVG 1.1//EN"
 "http://www.w3.org/Graphics/SVG/1.1/DTD/svg11.dtd">
<!-- Generated by graphviz version 2.43.0 (0)
 -->
<!-- Title: deployment Pages: 1 -->
<svg width="1158pt" height="279pt"
 viewBox="0.00 0.00 1158.00 279.00" xmlns="http://www.w3.org/2000/svg" xmlns:xlink="http://www.w3.org/1999/xlink">
<g id="graph0" class="graph" transform="scale(1 1) rotate(0) translate(4 275)">
<title>deployment</title>
<g id="clust1" class="cluster">
<title>cluster_dev</title>
<path fill="#eaf2fb" stroke="#3b6ea5" d="M42,-91C42,-91 461,-91 461,-91 467,-91 473,-97 473,-103 473,-103 473,-172 473,-172 473,-178 467,-184 461,-184 461,-184 42,-184 42,-184 36,-184 30,-178 30,-172 30,-172 30,-103 30,-103 30,-97 36,-91 42,-91"/>
<text text-anchor="middle" x="127.5" y="-168.8" font-family="Noto Sans CJK SC" font-size="14.00">开发机（MCP Client 宿主）</text>
</g>
<g id="clust2" class="cluster">
<title>cluster_server</title>
<path fill="#f3ead8" stroke="#b08a1e" d="M572,-109C572,-109 881,-109 881,-109 887,-109 893,-115 893,-121 893,-121 893,-251 893,-251 893,-257 887,-263 881,-263 881,-263 572,-263 572,-263 566,-263 560,-257 560,-251 560,-251 560,-121 560,-121 560,-115 566,-109 572,-109"/>
<text text-anchor="middle" x="701.5" y="-247.8" font-family="Noto Sans CJK SC" font-size="14.00">embedded&#45;mcp&#45;toolkit（MCP Server）</text>
</g>
<g id="clust3" class="cluster">
<title>cluster_remote</title>
<path fill="#e8f4e8" stroke="#2f6e2f" d="M799.5,-8C799.5,-8 1130,-8 1130,-8 1136,-8 1142,-14 1142,-20 1142,-20 1142,-89 1142,-89 1142,-95 1136,-101 1130,-101 1130,-101 799.5,-101 799.5,-101 793.5,-101 787.5,-95 787.5,-89 787.5,-89 787.5,-20 787.5,-20 787.5,-14 793.5,-8 799.5,-8"/>
<text text-anchor="middle" x="919" y="-85.8" font-family="Noto Sans CJK SC" font-size="14.00">远端编译服务器（嵌入式板卡/构建机）</text>
</g>
<!-- llm -->
<g id="node1" class="node">
<title>llm</title>
<path fill="#d6e4f0" stroke="#2c5f8a" d="M198,-152.5C198,-152.5 50,-152.5 50,-152.5 44,-152.5 38,-146.5 38,-140.5 38,-140.5 38,-117.5 38,-117.5 38,-111.5 44,-105.5 50,-105.5 50,-105.5 198,-105.5 198,-105.5 204,-105.5 210,-111.5 210,-117.5 210,-117.5 210,-140.5 210,-140.5 210,-146.5 204,-152.5 198,-152.5"/>
<text text-anchor="middle" x="124" y="-138.9" font-family="Noto Sans CJK SC" font-size="12.00">AI 编程助手</text>
<text text-anchor="middle" x="124" y="-125.9" font-family="Noto Sans CJK SC" font-size="12.00">(opencode / Claude Code)</text>
<text text-anchor="middle" x="124" y="-112.9" font-family="Noto Sans CJK SC" font-size="12.00">LLM 推理</text>
</g>
<!-- mcp_client -->
<g id="node2" class="node">
<title>mcp_client</title>
<path fill="#d6e4f0" stroke="#2c5f8a" d="M453,-153C453,-153 370,-153 370,-153 364,-153 358,-147 358,-141 358,-141 358,-129 358,-129 358,-123 364,-117 370,-117 370,-117 453,-117 453,-117 459,-117 465,-123 465,-129 465,-129 465,-141 465,-141 465,-147 459,-153 453,-153"/>
<text text-anchor="middle" x="411.5" y="-138.4" font-family="Noto Sans CJK SC" font-size="12.00">MCP Client</text>
<text text-anchor="middle" x="411.5" y="-125.4" font-family="Noto Sans CJK SC" font-size="12.00">(tools/call 请求)</text>
</g>
<!-- llm&#45;&gt;mcp_client -->
<g id="edge1" class="edge">
<title>llm&#45;&gt;mcp_client</title>
<path fill="none" stroke="#666666" stroke-dasharray="1,5" d="M210.27,-130.79C255.16,-131.74 309.15,-132.87 349.75,-133.72"/>
<polygon fill="#666666" stroke="#666666" points="349.88,-136.53 357.94,-133.9 350,-130.93 349.88,-136.53"/>
<text text-anchor="middle" x="303" y="-136" font-family="Noto Sans CJK SC" font-size="10.00">调用工具</text>
</g>
<!-- ssh_build -->
<g id="node3" class="node">
<title>ssh_build</title>
<path fill="#fff3cc" stroke="#b08a1e" d="M655,-153C655,-153 586,-153 586,-153 580,-153 574,-147 574,-141 574,-141 574,-129 574,-129 574,-123 580,-117 586,-117 586,-117 655,-117 655,-117 661,-117 667,-123 667,-129 667,-129 667,-141 667,-141 667,-147 661,-153 655,-153"/>
<text text-anchor="middle" x="620.5" y="-138.4" font-family="Noto Sans CJK SC" font-size="12.00">ssh_build</text>
<text text-anchor="middle" x="620.5" y="-125.4" font-family="Noto Sans CJK SC" font-size="12.00">（编译工具）</text>
</g>
<!-- mcp_client&#45;&gt;ssh_build -->
<g id="edge5" class="edge">
<title>mcp_client&#45;&gt;ssh_build</title>
<path fill="none" stroke="#2c5f8a" d="M465,-135C495.79,-135 534.6,-135 565.62,-135"/>
<polygon fill="#2c5f8a" stroke="#2c5f8a" points="565.74,-137.8 573.74,-135 565.74,-132.2 565.74,-137.8"/>
<text text-anchor="middle" x="516.5" y="-149" font-family="Noto Sans CJK SC" font-size="10.00" fill="#2c5f8a">tools/call</text>
<text text-anchor="middle" x="516.5" y="-138" font-family="Noto Sans CJK SC" font-size="10.00" fill="#2c5f8a">(stdio)</text>
</g>
<!-- ssh_store -->
<g id="node5" class="node">
<title>ssh_store</title>
<path fill="#f6e8c0" stroke="#8a6d1e" d="M885,-181.02C885,-183.36 863.71,-185.25 837.5,-185.25 811.29,-185.25 790,-183.36 790,-181.02 790,-181.02 790,-142.98 790,-142.98 790,-140.64 811.29,-138.75 837.5,-138.75 863.71,-138.75 885,-140.64 885,-142.98 885,-142.98 885,-181.02 885,-181.02"/>
<path fill="none" stroke="#8a6d1e" d="M885,-181.02C885,-178.69 863.71,-176.8 837.5,-176.8 811.29,-176.8 790,-178.69 790,-181.02"/>
<text text-anchor="middle" x="837.5" y="-165.4" font-family="Noto Sans CJK SC" font-size="12.00">SSH 会话存储</text>
<text text-anchor="middle" x="837.5" y="-152.4" font-family="Noto Sans CJK SC" font-size="12.00">(sshStore)</text>
</g>
<!-- ssh_build&#45;&gt;ssh_store -->
<g id="edge2" class="edge">
<title>ssh_build&#45;&gt;ssh_store</title>
<path fill="none" stroke="#666666" stroke-dasharray="5,2" d="M650.51,-153C665.33,-161.15 683.99,-169.87 702,-174 727.87,-179.94 757.16,-178.28 781.79,-174.58"/>
<polygon fill="#666666" stroke="#666666" points="782.5,-177.3 789.95,-173.25 781.6,-171.77 782.5,-177.3"/>
<text text-anchor="middle" x="731.5" y="-180" font-family="Noto Sans CJK SC" font-size="10.00">查询/加锁</text>
</g>
<!-- sshd -->
<g id="node6" class="node">
<title>sshd</title>
<path fill="#d9ecd9" stroke="#2f6e2f" d="M867.5,-70C867.5,-70 807.5,-70 807.5,-70 801.5,-70 795.5,-64 795.5,-58 795.5,-58 795.5,-46 795.5,-46 795.5,-40 801.5,-34 807.5,-34 807.5,-34 867.5,-34 867.5,-34 873.5,-34 879.5,-40 879.5,-46 879.5,-46 879.5,-58 879.5,-58 879.5,-64 873.5,-70 867.5,-70"/>
<text text-anchor="middle" x="837.5" y="-55.4" font-family="Noto Sans CJK SC" font-size="12.00">SSH Server</text>
<text text-anchor="middle" x="837.5" y="-42.4" font-family="Noto Sans CJK SC" font-size="12.00">(sshd)</text>
</g>
<!-- ssh_build&#45;&gt;sshd -->
<g id="edge6" class="edge">
<title>ssh_build&#45;&gt;sshd</title>
<path fill="none" stroke="#8a6d1e" d="M667.1,-117.4C702.54,-103.71 751.6,-84.77 787.81,-70.8"/>
<polygon fill="#8a6d1e" stroke="#8a6d1e" points="788.88,-73.39 795.33,-67.89 786.86,-68.16 788.88,-73.39"/>
<text text-anchor="middle" x="731.5" y="-117" font-family="Noto Sans CJK SC" font-size="10.00" fill="#8a6d1e">SSH 会话</text>
<text text-anchor="middle" x="731.5" y="-106" font-family="Noto Sans CJK SC" font-size="10.00" fill="#8a6d1e">(免密登录)</text>
</g>
<!-- note_parallel -->
<g id="node8" class="node">
<title>note_parallel</title>
<polygon fill="#fdf3d8" stroke="#b08a1e" points="242,-62 0,-62 0,-26 248,-26 248,-56 242,-62"/>
<polyline fill="none" stroke="#b08a1e" points="242,-62 242,-56 "/>
<polyline fill="none" stroke="#b08a1e" points="248,-56 242,-56 "/>
<text text-anchor="middle" x="124" y="-47.2" font-family="Noto Sans CJK SC" font-size="11.00">⚠ 同一会话同一时间仅支持 1 个编译任务</text>
<text text-anchor="middle" x="124" y="-35.2" font-family="Noto Sans CJK SC" font-size="11.00">并行编译需打开多个 SSH 会话</text>
</g>
<!-- ssh_build&#45;&gt;note_parallel -->
<g id="edge7" class="edge">
<title>ssh_build&#45;&gt;note_parallel</title>
<path fill="none" stroke="#b08a1e" stroke-dasharray="5,2" d="M587.49,-116.94C558.55,-101.56 514.29,-80.37 473,-70 402.84,-52.38 322.43,-45.54 256.59,-43.26"/>
<polygon fill="#b08a1e" stroke="#b08a1e" points="256.31,-40.45 248.23,-42.99 256.13,-46.04 256.31,-40.45"/>
<text text-anchor="middle" x="411.5" y="-73" font-family="Noto Sans CJK SC" font-size="10.00">约束</text>
</g>
<!-- ssh_shell_open -->
<g id="node4" class="node">
<title>ssh_shell_open</title>
<path fill="#fff3cc" stroke="#b08a1e" d="M661,-232C661,-232 580,-232 580,-232 574,-232 568,-226 568,-220 568,-220 568,-208 568,-208 568,-202 574,-196 580,-196 580,-196 661,-196 661,-196 667,-196 673,-202 673,-208 673,-208 673,-220 673,-220 673,-226 667,-232 661,-232"/>
<text text-anchor="middle" x="620.5" y="-217.4" font-family="Noto Sans CJK SC" font-size="12.00">ssh_shell_open</text>
<text text-anchor="middle" x="620.5" y="-204.4" font-family="Noto Sans CJK SC" font-size="12.00">（建立会话）</text>
</g>
<!-- ssh_shell_open&#45;&gt;ssh_store -->
<g id="edge3" class="edge">
<title>ssh_shell_open&#45;&gt;ssh_store</title>
<path fill="none" stroke="#666666" stroke-dasharray="5,2" d="M645.68,-195.84C664.75,-181.95 690.06,-164.58 702,-161 727.42,-153.38 756.78,-152.73 781.57,-154.35"/>
<polygon fill="#666666" stroke="#666666" points="781.6,-157.16 789.79,-154.98 782.03,-151.58 781.6,-157.16"/>
<text text-anchor="middle" x="731.5" y="-164" font-family="Noto Sans CJK SC" font-size="10.00">写入</text>
</g>
<!-- build_env -->
<g id="node7" class="node">
<title>build_env</title>
<path fill="#d9ecd9" stroke="#2f6e2f" d="M1122,-69.5C1122,-69.5 1007,-69.5 1007,-69.5 1001,-69.5 995,-63.5 995,-57.5 995,-57.5 995,-34.5 995,-34.5 995,-28.5 1001,-22.5 1007,-22.5 1007,-22.5 1122,-22.5 1122,-22.5 1128,-22.5 1134,-28.5 1134,-34.5 1134,-34.5 1134,-57.5 1134,-57.5 1134,-63.5 1128,-69.5 1122,-69.5"/>
<text text-anchor="middle" x="1064.5" y="-55.9" font-family="Noto Sans CJK SC" font-size="12.00">编译环境</text>
<text text-anchor="middle" x="1064.5" y="-42.9" font-family="Noto Sans CJK SC" font-size="12.00">(make / cmake / gcc</text>
<text text-anchor="middle" x="1064.5" y="-29.9" font-family="Noto Sans CJK SC" font-size="12.00">shell 脚本)</text>
</g>
<!-- sshd&#45;&gt;build_env -->
<g id="edge4" class="edge">
<title>sshd&#45;&gt;build_env</title>
<path fill="none" stroke="#666666" d="M879.51,-50.91C909.44,-50.11 950.9,-49 986.89,-48.04"/>
<polygon fill="#666666" stroke="#666666" points="987.03,-50.84 994.95,-47.83 986.88,-45.24 987.03,-50.84"/>
<text text-anchor="middle" x="940" y="-52" font-family="Noto Sans CJK SC" font-size="10.00">拉起编译</text>
</g>
</g>
</svg>
