<?xml version="1.0" encoding="UTF-8" standalone="no"?>
<!DOCTYPE svg PUBLIC "-//W3C//DTD SVG 1.1//EN"
 "http://www.w3.org/Graphics/SVG/1.1/DTD/svg11.dtd">
<!-- Generated by graphviz version 2.43.0 (0)
 -->
<!-- Title: sequence Pages: 1 -->
<svg width="334pt" height="973pt"
 viewBox="0.00 0.00 334.00 972.72" xmlns="http://www.w3.org/2000/svg" xmlns:xlink="http://www.w3.org/1999/xlink">
<g id="graph0" class="graph" transform="scale(1 1) rotate(0) translate(4 968.72)">
<title>sequence</title>
<!-- c1 -->
<g id="node1" class="node">
<title>c1</title>
<path fill="#d6e4f0" stroke="#2c5f8a" d="M64,-964.72C64,-964.72 12,-964.72 12,-964.72 6,-964.72 0,-958.72 0,-952.72 0,-952.72 0,-940.72 0,-940.72 0,-934.72 6,-928.72 12,-928.72 12,-928.72 64,-928.72 64,-928.72 70,-928.72 76,-934.72 76,-940.72 76,-940.72 76,-952.72 76,-952.72 76,-958.72 70,-964.72 64,-964.72"/>
<text text-anchor="middle" x="38" y="-949.72" font-family="Noto Sans CJK SC" font-size="10.00">MCP Client</text>
<text text-anchor="middle" x="38" y="-938.72" font-family="Noto Sans CJK SC" font-size="10.00">(AI)</text>
</g>
<!-- c2 -->
<!-- c1&#45;&gt;c2 -->
<!-- c3 -->
<!-- c2&#45;&gt;c3 -->
<!-- s2 -->
<!-- c2&#45;&gt;s2 -->
<g id="edge19" class="edge">
<title>c2&#45;&gt;s2</title>
<path fill="none" stroke="#2c5f8a" d="M38.02,-858.68C39.05,-856.8 72,-796.72 72,-796.72 72,-796.72 119.85,-768.81 137.53,-758.49"/>
<polygon fill="#2c5f8a" stroke="#2c5f8a" points="139.14,-760.39 143.95,-754.75 136.67,-756.16 139.14,-760.39"/>
<text text-anchor="middle" x="105.5" y="-809.52" font-family="Noto Sans CJK SC" font-size="9.00" fill="#2c5f8a">① tools/call</text>
<text text-anchor="middle" x="105.5" y="-799.52" font-family="Noto Sans CJK SC" font-size="9.00" fill="#2c5f8a">ssh_shell_open</text>
</g>
<!-- c4 -->
<!-- c3&#45;&gt;c4 -->
<!-- c5 -->
<!-- c4&#45;&gt;c5 -->
<!-- s4 -->
<!-- c4&#45;&gt;s4 -->
<g id="edge23" class="edge">
<title>c4&#45;&gt;s4</title>
<path fill="none" stroke="#2c5f8a" d="M24.03,-448.67C25.17,-446.94 55,-401.55 65.99,-384.83"/>
<polygon fill="#2c5f8a" stroke="#2c5f8a" points="68.17,-385.96 69.97,-378.77 64.08,-383.27 68.17,-385.96"/>
<text text-anchor="middle" x="82.5" y="-416.52" font-family="Noto Sans CJK SC" font-size="9.00" fill="#2c5f8a">③ tools/call</text>
<text text-anchor="middle" x="82.5" y="-406.52" font-family="Noto Sans CJK SC" font-size="9.00" fill="#2c5f8a">ssh_build(...)</text>
</g>
<!-- c6 -->
<!-- c5&#45;&gt;c6 -->
<!-- c7 -->
<!-- c6&#45;&gt;c7 -->
<!-- s1 -->
<g id="node8" class="node">
<title>s1</title>
<path fill="#fff3cc" stroke="#b08a1e" d="M199,-877.72C199,-877.72 89,-877.72 89,-877.72 83,-877.72 77,-871.72 77,-865.72 77,-865.72 77,-853.72 77,-853.72 77,-847.72 83,-841.72 89,-841.72 89,-841.72 199,-841.72 199,-841.72 205,-841.72 211,-847.72 211,-853.72 211,-853.72 211,-865.72 211,-865.72 211,-871.72 205,-877.72 199,-877.72"/>
<text text-anchor="middle" x="144" y="-862.72" font-family="Noto Sans CJK SC" font-size="10.00">MCP Server</text>
<text text-anchor="middle" x="144" y="-851.72" font-family="Noto Sans CJK SC" font-size="10.00">embedded&#45;mcp&#45;toolkit</text>
</g>
<!-- s1&#45;&gt;s2 -->
<!-- s3 -->
<!-- s2&#45;&gt;s3 -->
<!-- r2 -->
<!-- s2&#45;&gt;r2 -->
<g id="edge20" class="edge">
<title>s2&#45;&gt;r2</title>
<path fill="none" stroke="#8a6d1e" d="M144.1,-752.57C146.15,-749.52 179,-700.72 179,-700.72 179,-700.72 221.22,-684.73 238.12,-678.32"/>
<polygon fill="#8a6d1e" stroke="#8a6d1e" points="239.27,-680.51 244.95,-675.74 237.54,-675.93 239.27,-680.51"/>
<text text-anchor="middle" x="214" y="-703.52" font-family="Noto Sans CJK SC" font-size="9.00" fill="#8a6d1e">建立 SSH 连接</text>
</g>
<!-- s3&#45;&gt;c3 -->
<g id="edge22" class="edge">
<title>s3&#45;&gt;c3</title>
<path fill="none" stroke="#2c5f8a" stroke-dasharray="5,2" d="M143.94,-561.7C141.3,-560.94 57,-536.72 57,-536.72 57,-536.72 38.1,-516.67 28.9,-506.92"/>
<polygon fill="#2c5f8a" stroke="#2c5f8a" points="30.68,-505.23 24.09,-501.82 27.11,-508.59 30.68,-505.23"/>
<text text-anchor="middle" x="92.5" y="-529.52" font-family="Noto Sans CJK SC" font-size="9.00" fill="#2c5f8a">返回 session_id</text>
</g>
<!-- s3&#45;&gt;s4 -->
<!-- s5 -->
<!-- s4&#45;&gt;s5 -->
<!-- s6 -->
<!-- s5&#45;&gt;s6 -->
<!-- r5 -->
<!-- s5&#45;&gt;r5 -->
<g id="edge24" class="edge">
<title>s5&#45;&gt;r5</title>
<path fill="none" stroke="#8a6d1e" d="M70.05,-325.62C71.17,-323.57 89,-290.72 89,-290.72 89,-290.72 154.45,-273.31 176.12,-267.55"/>
<polygon fill="#8a6d1e" stroke="#8a6d1e" points="176.8,-269.91 182.93,-265.74 175.54,-265.17 176.8,-269.91"/>
<text text-anchor="middle" x="190.5" y="-293.52" font-family="Noto Sans CJK SC" font-size="9.00" fill="#8a6d1e">④ (cd cwd &amp;&amp; cmd 2&gt;&amp;1); echo MARKER:$?</text>
</g>
<!-- s6&#45;&gt;s6 -->
<g id="edge25" class="edge">
<title>s6&#45;&gt;s6</title>
<path fill="none" stroke="#b08a1e" d="M49.35,-133.11C56.92,-141.22 71.36,-141.09 71.36,-132.72 71.36,-126.18 62.54,-124.67 55.08,-128.19"/>
<polygon fill="#b08a1e" stroke="#b08a1e" points="53.59,-126.24 49.35,-132.33 56.46,-130.21 53.59,-126.24"/>
<text text-anchor="middle" x="149.86" y="-135.52" font-family="Noto Sans CJK SC" font-size="9.00" fill="#b08a1e">⑤ 剥离回显 → 轮询 drain()</text>
<text text-anchor="middle" x="149.86" y="-125.52" font-family="Noto Sans CJK SC" font-size="9.00" fill="#b08a1e">(每 2s 增量读取) → 匹配 MARKER</text>
</g>
<!-- s7 -->
<!-- s6&#45;&gt;s7 -->
<!-- s7&#45;&gt;c7 -->
<g id="edge27" class="edge">
<title>s7&#45;&gt;c7</title>
<path fill="none" stroke="#2c5f8a" d="M46.98,-70.67C46.4,-68.97 31.41,-25.24 25.43,-7.8"/>
<polygon fill="#2c5f8a" stroke="#2c5f8a" points="27.6,-6.6 23.02,-0.77 22.97,-8.19 27.6,-6.6"/>
<text text-anchor="middle" x="98" y="-38.52" font-family="Noto Sans CJK SC" font-size="9.00" fill="#2c5f8a">⑥ BUILD SUCCESS/FAILED</text>
<text text-anchor="middle" x="98" y="-28.52" font-family="Noto Sans CJK SC" font-size="9.00" fill="#2c5f8a">Summary: N err, M warn</text>
</g>
<!-- r1 -->
<g id="node15" class="node">
<title>r1</title>
<path fill="#d9ecd9" stroke="#2f6e2f" d="M314,-771.72C314,-771.72 226,-771.72 226,-771.72 220,-771.72 214,-765.72 214,-759.72 214,-759.72 214,-747.72 214,-747.72 214,-741.72 220,-735.72 226,-735.72 226,-735.72 314,-735.72 314,-735.72 320,-735.72 326,-741.72 326,-747.72 326,-747.72 326,-759.72 326,-759.72 326,-765.72 320,-771.72 314,-771.72"/>
<text text-anchor="middle" x="270" y="-751.22" font-family="Noto Sans CJK SC" font-size="10.00">远端编译服务器</text>
</g>
<!-- r1&#45;&gt;r2 -->
<!-- r3 -->
<!-- r2&#45;&gt;r3 -->
<!-- r3&#45;&gt;s3 -->
<g id="edge21" class="edge">
<title>r3&#45;&gt;s3</title>
<path fill="none" stroke="#8a6d1e" stroke-dasharray="5,2" d="M244.93,-622.68C242.34,-621.14 171.9,-579.3 150.26,-566.44"/>
<polygon fill="#8a6d1e" stroke="#8a6d1e" points="151.34,-564.23 144.07,-562.76 148.84,-568.44 151.34,-564.23"/>
<text text-anchor="middle" x="228.5" y="-590.52" font-family="Noto Sans CJK SC" font-size="9.00" fill="#8a6d1e">② 会话就绪</text>
</g>
<!-- r4 -->
<!-- r3&#45;&gt;r4 -->
<!-- r4&#45;&gt;r5 -->
<!-- r6 -->
<!-- r5&#45;&gt;r6 -->
<!-- r6&#45;&gt;s6 -->
<g id="edge26" class="edge">
<title>r6&#45;&gt;s6</title>
<path fill="none" stroke="#4a6a8a" stroke-dasharray="5,2" d="M182.95,-212.7C181.02,-211.94 119,-187.72 119,-187.72 119,-187.72 71.6,-151.16 54.81,-138.2"/>
<polygon fill="#4a6a8a" stroke="#4a6a8a" points="56.09,-136.09 49.05,-133.76 53.1,-139.97 56.09,-136.09"/>
<text text-anchor="middle" x="158.5" y="-180.52" font-family="Noto Sans CJK SC" font-size="9.00" fill="#4a6a8a">编译输出</text>
<text text-anchor="middle" x="158.5" y="-170.52" font-family="Noto Sans CJK SC" font-size="9.00" fill="#4a6a8a">(含 MARKER:exit)</text>
</g>
<!-- r7 -->
<!-- r6&#45;&gt;r7 -->
</g>
</svg>
