<svg xmlns="http://www.w3.org/2000/svg" xmlns:xlink="http://www.w3.org/1999/xlink" version="1.1" data-diagram-type="SEQUENCE" style="width:904px;height:1997px;background:#FFFFFF;" width="904px" height="1997px" viewBox="0 0 904 1997" zoomAndPan="magnify" preserveAspectRatio="none" contentStyleType="text/css"><?plantuml 1.2026.8beta1?><defs/><g font-family="sans-serif" lengthAdjust="spacing"><g class="title" data-source-line="18"><text x="122.133" y="35.421" fill="#000" font-size="22" textLength="658.142" font-weight="700" font-family="'Segoe UI'">serial_enter_uboot 预检 + 两层检测时序（含 restart 分支）</text></g><rect x="37.673" y="249.211" width="674.193" height="83.07" fill="#FFF" style="stroke:#FFF;stroke-width:1;"/><rect x="37.673" y="249.211" width="674.193" height="83.07" fill="none" style="stroke:#7A93BE;stroke-width:1;"/><rect x="37.673" y="448.352" width="582.814" height="378.992" fill="#FFF" style="stroke:#FFF;stroke-width:1;"/><rect x="37.673" y="448.352" width="582.814" height="378.992" fill="none" style="stroke:#7A93BE;stroke-width:1;"/><rect x="289.902" y="930.414" width="558.925" height="501.984" fill="#FFF" style="stroke:#FFF;stroke-width:1;"/><rect x="289.902" y="930.414" width="558.925" height="501.984" fill="none" style="stroke:#7A93BE;stroke-width:1;"/><rect x="18.673" y="1585.734" width="693.193" height="257.852" fill="#FFF" style="stroke:#FFF;stroke-width:1;"/><rect x="18.673" y="1585.734" width="693.193" height="257.852" fill="none" style="stroke:#7A93BE;stroke-width:1;"/><rect x="37.673" y="1658.805" width="420.092" height="170.781" fill="#FFF" style="stroke:#FFF;stroke-width:1;"/><rect x="37.673" y="1658.805" width="420.092" height="170.781" fill="none" style="stroke:#7A93BE;stroke-width:1;"/><g><title>...</title><rect x="50.173" y="110.203" width="8" height="1822.781" fill="#000" fill-opacity="0"/><line x1="53.673" y1="110.203" x2="53.673" y2="1932.984" style="stroke:#7A93BE;stroke-width:1;stroke-dasharray:5,5;"/></g><g><title>enter_uboot</title><rect x="302.402" y="110.203" width="8" height="1822.781" fill="#000" fill-opacity="0"/><line x1="305.902" y1="110.203" x2="305.902" y2="1932.984" style="stroke:#7A93BE;stroke-width:1;stroke-dasharray:5,5;"/></g><g><title>UbootDetector</title><rect x="692.366" y="110.203" width="8" height="1822.781" fill="#000" fill-opacity="0"/><line x1="695.866" y1="110.203" x2="695.866" y2="1932.984" style="stroke:#7A93BE;stroke-width:1;stroke-dasharray:5,5;"/></g><g><title>....</title><rect x="829.327" y="110.203" width="8" height="1822.781" fill="#000" fill-opacity="0"/><line x1="832.827" y1="110.203" x2="832.827" y2="1932.984" style="stroke:#7A93BE;stroke-width:1;stroke-dasharray:5,5;"/></g><rect x="20" y="61.609" width="67.347" height="42.594" fill="#DCE9FB" style="stroke:#7A93BE;stroke-width:1;" rx="2.5" ry="2.5"/><text x="32.673" y="79.604" fill="#1F2933" font-size="14" textLength="42" font-family="'Segoe UI'">调用方</text><text x="25" y="95.901" fill="#1F2933" font-size="14" textLength="57.347" font-family="'Segoe UI'">(AI/脚本)</text><rect x="258.539" y="61.609" width="94.725" height="42.594" fill="#DCE9FB" style="stroke:#7A93BE;stroke-width:1;" rx="2.5" ry="2.5"/><text x="263.539" y="79.604" fill="#1F2933" font-size="14" textLength="84.725" font-family="'Segoe UI'">enter_uboot</text><text x="279.166" y="95.901" fill="#1F2933" font-size="14" textLength="53.471" font-family="'Segoe UI'">handler</text><rect x="639.487" y="61.609" width="112.758" height="42.594" fill="#DCE9FB" style="stroke:#7A93BE;stroke-width:1;" rx="2.5" ry="2.5"/><text x="644.487" y="79.604" fill="#1F2933" font-size="14" textLength="102.758" font-family="'Segoe UI'">UbootDetector</text><text x="655.404" y="95.901" fill="#1F2933" font-size="14" textLength="80.924" font-family="'Segoe UI'">(四件套匹配)</text><rect x="782.245" y="61.609" width="101.164" height="42.594" fill="#DCE9FB" style="stroke:#7A93BE;stroke-width:1;" rx="2.5" ry="2.5"/><text x="804.827" y="79.604" fill="#1F2933" font-size="14" textLength="56" font-family="'Segoe UI'">设备串口</text><text x="787.245" y="95.901" fill="#1F2933" font-size="14" textLength="91.164" font-family="'Segoe UI'">(U-Boot/内核)</text><rect x="20" y="1937.984" width="67.347" height="42.594" fill="#DCE9FB" style="stroke:#7A93BE;stroke-width:1;" rx="2.5" ry="2.5"/><text x="32.673" y="1955.979" fill="#1F2933" font-size="14" textLength="42" font-family="'Segoe UI'">调用方</text><text x="25" y="1972.276" fill="#1F2933" font-size="14" textLength="57.347" font-family="'Segoe UI'">(AI/脚本)</text><rect x="258.539" y="1937.984" width="94.725" height="42.594" fill="#DCE9FB" style="stroke:#7A93BE;stroke-width:1;" rx="2.5" ry="2.5"/><text x="263.539" y="1955.979" fill="#1F2933" font-size="14" textLength="84.725" font-family="'Segoe UI'">enter_uboot</text><text x="279.166" y="1972.276" fill="#1F2933" font-size="14" textLength="53.471" font-family="'Segoe UI'">handler</text><rect x="639.487" y="1937.984" width="112.758" height="42.594" fill="#DCE9FB" style="stroke:#7A93BE;stroke-width:1;" rx="2.5" ry="2.5"/><text x="644.487" y="1955.979" fill="#1F2933" font-size="14" textLength="102.758" font-family="'Segoe UI'">UbootDetector</text><text x="655.404" y="1972.276" fill="#1F2933" font-size="14" textLength="80.924" font-family="'Segoe UI'">(四件套匹配)</text><rect x="782.245" y="1937.984" width="101.164" height="42.594" fill="#DCE9FB" style="stroke:#7A93BE;stroke-width:1;" rx="2.5" ry="2.5"/><text x="804.827" y="1955.979" fill="#1F2933" font-size="14" textLength="56" font-family="'Segoe UI'">设备串口</text><text x="787.245" y="1972.276" fill="#1F2933" font-size="14" textLength="91.164" font-family="'Segoe UI'">(U-Boot/内核)</text><rect x="10" y="138.77" width="883.409" height="3" fill="#FFF" style="stroke:#FFF;stroke-width:1;"/><line x1="10" y1="138.77" x2="893.409" y2="138.77" style="stroke:#000;stroke-width:0.5;"/><line x1="10" y1="141.77" x2="893.409" y2="141.77" style="stroke:#000;stroke-width:0.5;"/><rect x="390.442" y="128.203" width="122.526" height="23.133" fill="#FFF" style="stroke:#000;stroke-width:1;"/><text x="396.442" y="144.27" fill="#000" font-size="13" textLength="104" font-weight="700" font-family="'Segoe UI'">准备：构造检测器</text><polygon points="293.902,191.273,303.902,195.273,293.902,199.273,297.902,195.273" fill="#5A5A5A" style="stroke:#5A5A5A;stroke-width:1;stroke-linejoin:miter;stroke-miterlimit:10;"/><line x1="53.673" y1="195.273" x2="299.902" y2="195.273" style="stroke:#5A5A5A;stroke-width:1;"/><text x="60.673" y="176.475" fill="#333" font-size="12" textLength="111.211" font-family="'Segoe UI'">serial_enter_uboot</text><text x="60.673" y="190.443" fill="#333" font-size="12" textLength="228.229" font-family="'Segoe UI'">(session_id, timeoutMs, restart=false)</text><polygon points="683.866,233.211,693.866,237.211,683.866,241.211,687.866,237.211" fill="#5A5A5A" style="stroke:#5A5A5A;stroke-width:1;stroke-linejoin:miter;stroke-miterlimit:10;"/><line x1="305.902" y1="237.211" x2="689.866" y2="237.211" style="stroke:#5A5A5A;stroke-width:1;"/><text x="312.902" y="218.412" fill="#333" font-size="12" textLength="121.377" font-family="'Segoe UI'">new UbootDetector(</text><text x="312.902" y="232.381" fill="#333" font-size="12" textLength="147.457" font-family="'Segoe UI'">getUbootConfig(device))</text><path d="M37.673,249.211 L102.116,249.211 L102.116,256.344 L92.116,266.344 L37.673,266.344 L37.673,249.211" style="stroke:#7A93BE;stroke-width:1;" fill="#F7F9FC"/><rect x="37.673" y="249.211" width="674.193" height="83.07" fill="none" style="stroke:#7A93BE;stroke-width:1;"/><text x="52.673" y="262.278" fill="#000" font-size="13" textLength="19.443" font-weight="700" font-family="'Segoe UI'">alt</text><text x="117.116" y="261.421" fill="#000" font-size="11" textLength="87.054" font-weight="700" font-family="'Segoe UI'">[配置含非法正则]</text><polygon points="316.902,292.313,306.902,296.313,316.902,300.313,312.902,296.313" fill="#5A5A5A" style="stroke:#5A5A5A;stroke-width:1;stroke-linejoin:miter;stroke-miterlimit:10;"/><line x1="310.902" y1="296.313" x2="694.866" y2="296.313" style="stroke:#5A5A5A;stroke-width:1;stroke-dasharray:2,2;"/><text x="322.902" y="291.482" fill="#333" font-size="12" textLength="67.939" font-family="'Segoe UI'">throw Error</text><polygon points="64.673,320.281,54.673,324.281,64.673,328.281,60.673,324.281" fill="#5A5A5A" style="stroke:#5A5A5A;stroke-width:1;stroke-linejoin:miter;stroke-miterlimit:10;"/><line x1="58.673" y1="324.281" x2="304.902" y2="324.281" style="stroke:#5A5A5A;stroke-width:1;stroke-dasharray:2,2;"/><text x="70.673" y="319.451" fill="#333" font-size="12" textLength="108.001" font-family="'Segoe UI'">配置错误，快速返回</text><rect x="10" y="366.848" width="883.409" height="3" fill="#FFF" style="stroke:#FFF;stroke-width:1;"/><line x1="10" y1="366.848" x2="893.409" y2="366.848" style="stroke:#000;stroke-width:0.5;"/><line x1="10" y1="369.848" x2="893.409" y2="369.848" style="stroke:#000;stroke-width:0.5;"/><rect x="288.704" y="356.281" width="326" height="23.133" fill="#FFF" style="stroke:#000;stroke-width:1;"/><text x="294.704" y="372.348" fill="#000" font-size="13" textLength="312" font-weight="700" font-family="'Segoe UI'">预检：发重启命令前的被动形态判定（零串口副作用）</text><line x1="305.902" y1="423.352" x2="347.902" y2="423.352" style="stroke:#5A5A5A;stroke-width:1;"/><line x1="347.902" y1="423.352" x2="347.902" y2="436.352" style="stroke:#5A5A5A;stroke-width:1;"/><line x1="306.902" y1="436.352" x2="347.902" y2="436.352" style="stroke:#5A5A5A;stroke-width:1;"/><polygon points="316.902,432.352,306.902,436.352,316.902,440.352,312.902,436.352" fill="#5A5A5A" style="stroke:#5A5A5A;stroke-width:1;stroke-linejoin:miter;stroke-miterlimit:10;"/><text x="312.902" y="404.553" fill="#333" font-size="12" textLength="107.209" font-family="'Segoe UI'">classifyUbootEnv(</text><text x="312.902" y="418.521" fill="#333" font-size="12" textLength="144.504" font-family="'Segoe UI'">shell.read(0) 缓冲区尾部)</text><path d="M37.673,448.352 L102.116,448.352 L102.116,455.484 L92.116,465.484 L37.673,465.484 L37.673,448.352" style="stroke:#7A93BE;stroke-width:1;" fill="#F7F9FC"/><rect x="37.673" y="448.352" width="582.814" height="378.992" fill="none" style="stroke:#7A93BE;stroke-width:1;"/><text x="52.673" y="461.418" fill="#000" font-size="13" textLength="19.443" font-weight="700" font-family="'Segoe UI'">alt</text><text x="117.116" y="460.562" fill="#000" font-size="11" textLength="296.72" font-weight="700" font-family="'Segoe UI'">[已在 U-Boot（尾部 =>/U-Boot>）且 restart=false]</text><line x1="305.902" y1="495.453" x2="347.902" y2="495.453" style="stroke:#5A5A5A;stroke-width:1;"/><line x1="347.902" y1="495.453" x2="347.902" y2="508.453" style="stroke:#5A5A5A;stroke-width:1;"/><line x1="306.902" y1="508.453" x2="347.902" y2="508.453" style="stroke:#5A5A5A;stroke-width:1;"/><polygon points="316.902,504.453,306.902,508.453,316.902,512.453,312.902,508.453" fill="#5A5A5A" style="stroke:#5A5A5A;stroke-width:1;stroke-linejoin:miter;stroke-miterlimit:10;"/><text x="312.902" y="490.623" fill="#333" font-size="12" textLength="121.863" font-family="'Segoe UI'">markUbootSession()</text><polygon points="64.673,546.391,54.673,550.391,64.673,554.391,60.673,550.391" fill="#5A5A5A" style="stroke:#5A5A5A;stroke-width:1;stroke-linejoin:miter;stroke-miterlimit:10;"/><line x1="58.673" y1="550.391" x2="304.902" y2="550.391" style="stroke:#5A5A5A;stroke-width:1;stroke-dasharray:2,2;"/><text x="70.673" y="531.592" fill="#333" font-size="12" textLength="129" font-family="'Segoe UI'">成功（via pre-check）</text><text x="70.673" y="545.561" fill="#333" font-size="12" textLength="84.001" font-family="'Segoe UI'">免重启直接返回</text><line x1="37.673" y1="559.391" x2="620.487" y2="559.391" style="stroke:#7A93BE;stroke-width:1;stroke-dasharray:2,2;"/><text x="42.673" y="571.601" fill="#000" font-size="11" textLength="292.977" font-weight="700" font-family="'Segoe UI'">[已在 U-Boot 且 restart=true（2026-09-06 新增）]</text><line x1="305.902" y1="611.133" x2="347.902" y2="611.133" style="stroke:#5A5A5A;stroke-width:1;"/><line x1="347.902" y1="611.133" x2="347.902" y2="624.133" style="stroke:#5A5A5A;stroke-width:1;"/><line x1="306.902" y1="624.133" x2="347.902" y2="624.133" style="stroke:#5A5A5A;stroke-width:1;"/><polygon points="316.902,620.133,306.902,624.133,316.902,628.133,312.902,624.133" fill="#5A5A5A" style="stroke:#5A5A5A;stroke-width:1;stroke-linejoin:miter;stroke-miterlimit:10;"/><text x="312.902" y="592.334" fill="#333" font-size="12" textLength="121.863" font-family="'Segoe UI'">markUbootSession()</text><text x="312.902" y="606.303" fill="#333" font-size="12" textLength="149.685" font-family="'Segoe UI'">（尾部锚点 = 新鲜正证据）</text><path d="M310.902,637.133 L310.902,707.133 L598.902,707.133 L598.902,647.133 L588.902,637.133 L310.902,637.133" style="stroke:#E0B400;stroke-width:1;" fill="#FFFBE6"/><path d="M588.902,637.133 L588.902,647.133 L598.902,647.133 L588.902,637.133" style="stroke:#E0B400;stroke-width:1;" fill="#FFFBE6"/><text x="316.902" y="654.2" fill="#5C4A00" font-size="13" textLength="190.22" font-family="'Segoe UI'">走"重启再进 U-Boot"完整周期：</text><text x="316.902" y="669.333" fill="#5C4A00" font-size="13" textLength="267.585" font-family="'Segoe UI'">U-Boot → reset → 拦截 autoboot → U-Boot</text><text x="316.902" y="684.465" fill="#5C4A00" font-size="13" textLength="219.68" font-family="'Segoe UI'">（Linux 全程不参与，省掉先 boot 进</text><text x="316.902" y="699.598" fill="#5C4A00" font-size="13" textLength="155.023" font-family="'Segoe UI'">Linux 再 reboot 的往返）</text><line x1="37.673" y1="713.664" x2="620.487" y2="713.664" style="stroke:#7A93BE;stroke-width:1;stroke-dasharray:2,2;"/><text x="42.673" y="725.875" fill="#000" font-size="11" textLength="139.1" font-weight="700" font-family="'Segoe UI'">[停在 login:/Password:]</text><polygon points="64.673,761.406,54.673,765.406,64.673,769.406,60.673,765.406" fill="#5A5A5A" style="stroke:#5A5A5A;stroke-width:1;stroke-linejoin:miter;stroke-miterlimit:10;"/><line x1="58.673" y1="765.406" x2="304.902" y2="765.406" style="stroke:#5A5A5A;stroke-width:1;stroke-dasharray:2,2;"/><text x="70.673" y="746.607" fill="#333" font-size="12" textLength="108.001" font-family="'Segoe UI'">失败：先登录再重试</text><text x="70.673" y="760.576" fill="#333" font-size="12" textLength="163.138" font-family="'Segoe UI'">（reboot 会被当作凭据吞掉）</text><line x1="37.673" y1="774.406" x2="620.487" y2="774.406" style="stroke:#7A93BE;stroke-width:1;stroke-dasharray:2,2;"/><text x="42.673" y="786.617" fill="#000" font-size="11" textLength="155.128" font-weight="700" font-family="'Segoe UI'">[booting/autoboot/无结论]</text><path d="M310.902,797.211 L310.902,822.211 L507.902,822.211 L507.902,807.211 L497.902,797.211 L310.902,797.211" style="stroke:#E0B400;stroke-width:1;" fill="#FFFBE6"/><path d="M497.902,797.211 L497.902,807.211 L507.902,807.211 L497.902,797.211" style="stroke:#E0B400;stroke-width:1;" fill="#FFFBE6"/><text x="316.902" y="814.278" fill="#5C4A00" font-size="13" textLength="176.732" font-family="'Segoe UI'">不拦，按系统侧流程发 reboot</text><rect x="10" y="861.91" width="883.409" height="3" fill="#FFF" style="stroke:#FFF;stroke-width:1;"/><line x1="10" y1="861.91" x2="893.409" y2="861.91" style="stroke:#000;stroke-width:0.5;"/><line x1="10" y1="864.91" x2="893.409" y2="864.91" style="stroke:#000;stroke-width:0.5;"/><rect x="348.401" y="851.344" width="206.607" height="23.133" fill="#FFF" style="stroke:#000;stroke-width:1;"/><text x="354.401" y="867.411" fill="#000" font-size="13" textLength="188.081" font-weight="700" font-family="'Segoe UI'">阶段一：重启并打断 autoboot</text><polygon points="820.827,914.414,830.827,918.414,820.827,922.414,824.827,918.414" fill="#5A5A5A" style="stroke:#5A5A5A;stroke-width:1;stroke-linejoin:miter;stroke-miterlimit:10;"/><line x1="305.902" y1="918.414" x2="826.827" y2="918.414" style="stroke:#5A5A5A;stroke-width:1;"/><text x="312.902" y="899.615" fill="#333" font-size="12" textLength="87.534" font-family="'Segoe UI'">write(重启命令)</text><text x="312.902" y="913.584" fill="#333" font-size="12" textLength="203.907" font-family="'Segoe UI'">系统侧 "reboot" / U-Boot 侧 "reset"</text><path d="M289.902,930.414 L366.526,930.414 L366.526,937.547 L356.526,947.547 L289.902,947.547 L289.902,930.414" style="stroke:#7A93BE;stroke-width:1;" fill="#F7F9FC"/><rect x="289.902" y="930.414" width="558.925" height="501.984" fill="none" style="stroke:#7A93BE;stroke-width:1;"/><text x="304.902" y="943.481" fill="#000" font-size="13" textLength="31.624" font-weight="700" font-family="'Segoe UI'">loop</text><text x="381.526" y="942.625" fill="#000" font-size="11" textLength="301.344" font-weight="700" font-family="'Segoe UI'">[前 5s 每 150ms 快轮询，之后每 500ms（直到总超时）]</text><line x1="305.902" y1="977.516" x2="347.902" y2="977.516" style="stroke:#5A5A5A;stroke-width:1;"/><line x1="347.902" y1="977.516" x2="347.902" y2="990.516" style="stroke:#5A5A5A;stroke-width:1;"/><line x1="306.902" y1="990.516" x2="347.902" y2="990.516" style="stroke:#5A5A5A;stroke-width:1;"/><polygon points="316.902,986.516,306.902,990.516,316.902,994.516,312.902,990.516" fill="#5A5A5A" style="stroke:#5A5A5A;stroke-width:1;stroke-linejoin:miter;stroke-miterlimit:10;"/><text x="312.902" y="972.686" fill="#333" font-size="12" textLength="116.022" font-family="'Segoe UI'">drain() 增量累积输出</text><polygon points="683.866,1014.484,693.866,1018.484,683.866,1022.484,687.866,1018.484" fill="#5A5A5A" style="stroke:#5A5A5A;stroke-width:1;stroke-linejoin:miter;stroke-miterlimit:10;"/><line x1="305.902" y1="1018.484" x2="689.866" y2="1018.484" style="stroke:#5A5A5A;stroke-width:1;"/><text x="312.902" y="1013.654" fill="#333" font-size="12" textLength="169.148" font-family="'Segoe UI'">matchKernelBoot(allOutput)</text><polygon points="316.902,1056.422,306.902,1060.422,316.902,1064.422,312.902,1060.422" fill="#5A5A5A" style="stroke:#5A5A5A;stroke-width:1;stroke-linejoin:miter;stroke-miterlimit:10;"/><line x1="310.902" y1="1060.422" x2="694.866" y2="1060.422" style="stroke:#5A5A5A;stroke-width:1;stroke-dasharray:2,2;"/><text x="322.902" y="1041.623" fill="#333" font-size="12" textLength="89.684" font-family="'Segoe UI'">命中 → 立即失败</text><text x="322.902" y="1055.592" fill="#333" font-size="12" textLength="134.408" font-family="'Segoe UI'">+ clearUbootSession()</text><path d="M310.902,1073.422 L310.902,1143.422 L552.902,1143.422 L552.902,1083.422 L542.902,1073.422 L310.902,1073.422" style="stroke:#E0B400;stroke-width:1;" fill="#FFFBE6"/><path d="M542.902,1073.422 L542.902,1083.422 L552.902,1083.422 L542.902,1073.422" style="stroke:#E0B400;stroke-width:1;" fill="#FFFBE6"/><text x="316.902" y="1090.489" fill="#5C4A00" font-size="13" textLength="221.394" font-family="'Segoe UI'">离开 U-Boot 的确定性反证，就地清位</text><text x="316.902" y="1105.622" fill="#5C4A00" font-size="13" textLength="203.043" font-family="'Segoe UI'">（不等 exec/read 自校正晚一拍）</text><text x="316.902" y="1120.754" fill="#5C4A00" font-size="13" textLength="186.291" font-family="'Segoe UI'">失败响应提示：等 Linux 起来后</text><text x="316.902" y="1135.887" fill="#5C4A00" font-size="13" textLength="189.732" font-family="'Segoe UI'">用默认模式（reboot 路径）重试</text><polygon points="683.866,1164.922,693.866,1168.922,683.866,1172.922,687.866,1168.922" fill="#5A5A5A" style="stroke:#5A5A5A;stroke-width:1;stroke-linejoin:miter;stroke-miterlimit:10;"/><line x1="305.902" y1="1168.922" x2="689.866" y2="1168.922" style="stroke:#5A5A5A;stroke-width:1;"/><text x="312.902" y="1164.092" fill="#333" font-size="12" textLength="146.543" font-family="'Segoe UI'">matchPrompt(allOutput)</text><polygon points="316.902,1206.859,306.902,1210.859,316.902,1214.859,312.902,1210.859" fill="#5A5A5A" style="stroke:#5A5A5A;stroke-width:1;stroke-linejoin:miter;stroke-miterlimit:10;"/><line x1="310.902" y1="1210.859" x2="694.866" y2="1210.859" style="stroke:#5A5A5A;stroke-width:1;stroke-dasharray:2,2;"/><text x="322.902" y="1192.061" fill="#333" font-size="12" textLength="163.547" font-family="'Segoe UI'">命中 → markUbootSession()</text><text x="322.902" y="1206.029" fill="#333" font-size="12" textLength="113.508" font-family="'Segoe UI'">成功（via prompt）</text><path d="M310.902,1223.859 L310.902,1278.859 L462.902,1278.859 L462.902,1233.859 L452.902,1223.859 L310.902,1223.859" style="stroke:#E0B400;stroke-width:1;" fill="#FFFBE6"/><path d="M452.902,1223.859 L452.902,1233.859 L462.902,1233.859 L452.902,1223.859" style="stroke:#E0B400;stroke-width:1;" fill="#FFFBE6"/><text x="316.902" y="1240.926" fill="#5C4A00" font-size="13" textLength="104" font-family="'Segoe UI'">未中断也可命中：</text><text x="316.902" y="1256.059" fill="#5C4A00" font-size="13" textLength="131.765" font-family="'Segoe UI'">bootdelay=-2 类设备</text><text x="316.902" y="1271.192" fill="#5C4A00" font-size="13" textLength="130" font-family="'Segoe UI'">重启后直接停靠提示符</text><polygon points="683.866,1300.227,693.866,1304.227,683.866,1308.227,687.866,1304.227" fill="#5A5A5A" style="stroke:#5A5A5A;stroke-width:1;stroke-linejoin:miter;stroke-miterlimit:10;"/><line x1="305.902" y1="1304.227" x2="689.866" y2="1304.227" style="stroke:#5A5A5A;stroke-width:1;"/><text x="312.902" y="1299.396" fill="#333" font-size="12" textLength="157.887" font-family="'Segoe UI'">matchAutoboot(allOutput)</text><polygon points="316.902,1342.164,306.902,1346.164,316.902,1350.164,312.902,1346.164" fill="#5A5A5A" style="stroke:#5A5A5A;stroke-width:1;stroke-linejoin:miter;stroke-miterlimit:10;"/><line x1="310.902" y1="1346.164" x2="694.866" y2="1346.164" style="stroke:#5A5A5A;stroke-width:1;stroke-dasharray:2,2;"/><text x="322.902" y="1327.365" fill="#333" font-size="12" textLength="77.684" font-family="'Segoe UI'">命中 → 中断键</text><text x="322.902" y="1341.334" fill="#333" font-size="12" textLength="132.856" font-family="'Segoe UI'">(\x03 / \x15 / 空格 / \n)</text><polygon points="820.827,1370.133,830.827,1374.133,820.827,1378.133,824.827,1374.133" fill="#5A5A5A" style="stroke:#5A5A5A;stroke-width:1;stroke-linejoin:miter;stroke-miterlimit:10;"/><line x1="305.902" y1="1374.133" x2="826.827" y2="1374.133" style="stroke:#5A5A5A;stroke-width:1;"/><text x="312.902" y="1369.303" fill="#333" font-size="12" textLength="99.727" font-family="'Segoe UI'">sendRaw(中断键)</text><path d="M310.902,1387.133 L310.902,1427.133 L448.902,1427.133 L448.902,1397.133 L438.902,1387.133 L310.902,1387.133" style="stroke:#E0B400;stroke-width:1;" fill="#FFFBE6"/><path d="M438.902,1387.133 L438.902,1397.133 L448.902,1397.133 L438.902,1387.133" style="stroke:#E0B400;stroke-width:1;" fill="#FFFBE6"/><text x="316.902" y="1404.2" fill="#5C4A00" font-size="13" textLength="117.597" font-family="'Segoe UI'">记录 interruptedAt</text><text x="316.902" y="1419.333" fill="#5C4A00" font-size="13" textLength="78" font-family="'Segoe UI'">清空输出缓冲</text><rect x="10" y="1466.965" width="883.409" height="3" fill="#FFF" style="stroke:#FFF;stroke-width:1;"/><line x1="10" y1="1466.965" x2="893.409" y2="1466.965" style="stroke:#000;stroke-width:0.5;"/><line x1="10" y1="1469.965" x2="893.409" y2="1469.965" style="stroke:#000;stroke-width:0.5;"/><rect x="340.416" y="1456.398" width="222.578" height="23.133" fill="#FFF" style="stroke:#000;stroke-width:1;"/><text x="346.416" y="1472.465" fill="#000" font-size="13" textLength="204.052" font-weight="700" font-family="'Segoe UI'">阶段二：验证层 — 环境变量键判定</text><polygon points="820.827,1519.469,830.827,1523.469,820.827,1527.469,824.827,1523.469" fill="#5A5A5A" style="stroke:#5A5A5A;stroke-width:1;stroke-linejoin:miter;stroke-miterlimit:10;"/><line x1="305.902" y1="1523.469" x2="826.827" y2="1523.469" style="stroke:#5A5A5A;stroke-width:1;"/><text x="312.902" y="1504.67" fill="#333" font-size="12" textLength="179.251" font-family="'Segoe UI'">主层窗口(4s)耗尽仍未命中提示符</text><text x="312.902" y="1518.639" fill="#333" font-size="12" textLength="148.348" font-family="'Segoe UI'">sendRaw("\nprintenv\n")</text><path d="M310.902,1536.469 L310.902,1576.469 L513.902,1576.469 L513.902,1546.469 L503.902,1536.469 L310.902,1536.469" style="stroke:#E0B400;stroke-width:1;" fill="#FFFBE6"/><path d="M503.902,1536.469 L503.902,1546.469 L513.902,1546.469 L503.902,1536.469" style="stroke:#E0B400;stroke-width:1;" fill="#FFFBE6"/><text x="316.902" y="1553.536" fill="#5C4A00" font-size="13" textLength="182" font-family="'Segoe UI'">仅已中断场景触发（仅发一次）</text><text x="316.902" y="1568.668" fill="#5C4A00" font-size="13" textLength="129.048" font-family="'Segoe UI'">记录 verifyStartedAt</text><path d="M18.673,1585.734 L95.297,1585.734 L95.297,1592.867 L85.297,1602.867 L18.673,1602.867 L18.673,1585.734" style="stroke:#7A93BE;stroke-width:1;" fill="#F7F9FC"/><rect x="18.673" y="1585.734" width="693.193" height="257.852" fill="none" style="stroke:#7A93BE;stroke-width:1;"/><text x="33.673" y="1598.801" fill="#000" font-size="13" textLength="31.624" font-weight="700" font-family="'Segoe UI'">loop</text><text x="110.297" y="1597.945" fill="#000" font-size="11" textLength="101.255" font-weight="700" font-family="'Segoe UI'">[验证层窗口（4s）]</text><polygon points="683.866,1642.805,693.866,1646.805,683.866,1650.805,687.866,1646.805" fill="#5A5A5A" style="stroke:#5A5A5A;stroke-width:1;stroke-linejoin:miter;stroke-miterlimit:10;"/><line x1="305.902" y1="1646.805" x2="689.866" y2="1646.805" style="stroke:#5A5A5A;stroke-width:1;"/><text x="312.902" y="1628.006" fill="#333" font-size="12" textLength="144.434" font-family="'Segoe UI'">matchVerifyKey(output)</text><text x="312.902" y="1641.975" fill="#333" font-size="12" textLength="123.118" font-family="'Segoe UI'">（字面量 key= 匹配）</text><path d="M37.673,1658.805 L102.116,1658.805 L102.116,1665.938 L92.116,1675.938 L37.673,1675.938 L37.673,1658.805" style="stroke:#7A93BE;stroke-width:1;" fill="#F7F9FC"/><rect x="37.673" y="1658.805" width="420.092" height="170.781" fill="none" style="stroke:#7A93BE;stroke-width:1;"/><text x="52.673" y="1671.872" fill="#000" font-size="13" textLength="19.443" font-weight="700" font-family="'Segoe UI'">alt</text><text x="117.116" y="1671.015" fill="#000" font-size="11" textLength="176.848" font-weight="700" font-family="'Segoe UI'">[命中 baudrate=/bootdelay=]</text><line x1="305.902" y1="1705.906" x2="347.902" y2="1705.906" style="stroke:#5A5A5A;stroke-width:1;"/><line x1="347.902" y1="1705.906" x2="347.902" y2="1718.906" style="stroke:#5A5A5A;stroke-width:1;"/><line x1="306.902" y1="1718.906" x2="347.902" y2="1718.906" style="stroke:#5A5A5A;stroke-width:1;"/><polygon points="316.902,1714.906,306.902,1718.906,316.902,1722.906,312.902,1718.906" fill="#5A5A5A" style="stroke:#5A5A5A;stroke-width:1;stroke-linejoin:miter;stroke-miterlimit:10;"/><text x="312.902" y="1701.076" fill="#333" font-size="12" textLength="121.863" font-family="'Segoe UI'">markUbootSession()</text><polygon points="64.673,1742.875,54.673,1746.875,64.673,1750.875,60.673,1746.875" fill="#5A5A5A" style="stroke:#5A5A5A;stroke-width:1;stroke-linejoin:miter;stroke-miterlimit:10;"/><line x1="58.673" y1="1746.875" x2="304.902" y2="1746.875" style="stroke:#5A5A5A;stroke-width:1;stroke-dasharray:2,2;"/><text x="70.673" y="1742.045" fill="#333" font-size="12" textLength="103.682" font-family="'Segoe UI'">成功（via verify）</text><line x1="37.673" y1="1755.875" x2="457.765" y2="1755.875" style="stroke:#7A93BE;stroke-width:1;stroke-dasharray:2,2;"/><text x="42.673" y="1768.085" fill="#000" font-size="11" textLength="54.054" font-weight="700" font-family="'Segoe UI'">[窗口耗尽]</text><polygon points="64.673,1817.586,54.673,1821.586,64.673,1825.586,60.673,1821.586" fill="#5A5A5A" style="stroke:#5A5A5A;stroke-width:1;stroke-linejoin:miter;stroke-miterlimit:10;"/><line x1="58.673" y1="1821.586" x2="304.902" y2="1821.586" style="stroke:#5A5A5A;stroke-width:1;stroke-dasharray:2,2;"/><text x="70.673" y="1788.818" fill="#333" font-size="12" textLength="84.001" font-family="'Segoe UI'">失败：验证超时</text><text x="70.673" y="1802.787" fill="#333" font-size="12" textLength="180.001" font-family="'Segoe UI'">标记不动（大概率仍停在提示符）</text><text x="70.673" y="1816.756" fill="#333" font-size="12" textLength="179.619" font-family="'Segoe UI'">提示 serial_uboot_state detect</text><path d="M6.546,1862.586 L6.546,1917.586 L879.546,1917.586 L879.546,1872.586 L869.546,1862.586 L6.546,1862.586" style="stroke:#E0B400;stroke-width:1;" fill="#FFFBE6"/><path d="M869.546,1862.586 L869.546,1872.586 L879.546,1872.586 L869.546,1862.586" style="stroke:#E0B400;stroke-width:1;" fill="#FFFBE6"/><text x="238.323" y="1879.653" fill="#5C4A00" font-size="13" textLength="370.234" font-family="'Segoe UI'">全程兜底：总超时 timeoutMs 毫秒（默认 60000 = 60 秒）；</text><text x="238.323" y="1894.786" fill="#5C4A00" font-size="13" textLength="399.262" font-family="'Segoe UI'">任一轮命中内核启动特征立即判失败并清标记（设备越过 U-Boot）；</text><text x="238.323" y="1909.918" fill="#5C4A00" font-size="13" textLength="400.855" font-family="'Segoe UI'">总超时出口标记维持循环前的值（缺失证据不清），提示 detect 定位</text><?plantuml-src ZLPjKnh95lxEh-ZBVe7Qk10JtJ9Lf4fHhrlxbhfMxYUgKXDeTKgSuGw3nls4YOWl86R569KOOunoDO99r22W-IzRTC_mANzXJtSF26YomRB4xjEdp_ESvvpJ_z97y1X6eQ0aAxRmgAo494qQGmyb_-YmfaQKW5SDgXhwhfz_6Yp28r90dP2LOJGa1SEuOIU0XwH8KEzN5Vqt2NpR1_6mYj7zd-mDHjsQfavOlZkwsK_h9Zjl6TpYd-iC1kK_CBhPth0rYFyNmOeVtvCqNVRB8KdHUrGjW3NBru_TNRTw-lxXG2lwNczVLt_Frmyrn7kplxshATwQ-I_o4Fmg-DiY-ZU44BeII_-F_LtztY-QVzNpRwgEUwv9RKzVPwjLevy-Tyzjjxl5eW5lX_TsD-pRT5aFOXJ6cYm57s15nzg3o4DLrL5rUvg-ZgBlKQMmGzuzXk_qP86kdf9YwdDvbYmT80s7TU0IaTaPciv_Bi_PRA5BRf7TF7fYfBFqsPbFSNJ_v3AdrsdchTEEf33oDbistEjJHYGb4CGQjnjejhlFB7gnZlswge5Nih5HAPsIDwiaSLQD9ONltfOeSXTa9rufl2Ufrt3aVbiF-72HcHZTAeW3WpQRnuD8V0RiFfVNwUPqDReby9ArBF9uR3OlQhkB1j2TQuW2ds4S3ikgya0Et42wF8RLYFvh-4QD7mylDgTjWFde1HyAda1DI1m-PHZhVCchAaFoi2E0nsK_TZfjKX0o4KiQvpbWlFfYatvOeOUloUoQ3O6lDYigVGHg2_L1XMcmFi3NlR0kJbRJQsOUyfCWdmwgqPVcfpJPsBHX9S1nYpm3Rf9wMeqdoLAUF3slb7R8ND9OdpQt3yXybfnlq-WKcTqXkNL8VdNZLF19vlALymma6PBFQ1geqUGFIa39q2J7rAUC0yBm20u6Vz2m572udSWeBvEPzoHH94SNrITP0PHyV4yoMIHIn4J6zv3dhaiitOLhAeLqCx42iBXsJD96-PM38YCEPnCTT7Q9pBy4n-EoX48QRlEFOFyeEFKf99OKu8sDOxhufiOH-6-E2ZNUhsiH3DxQtUsTRUwkDdSdei-EoFOcAuMlHkLJwkYgwNNZyHdoiAFLznb8hfcVeicSyA50qI9D7XxHaJh4dPadHtOhJJD9yzE65PUTv19qvPWypT8C85ptALQyVytyoUB5uXjTsAMp-qYAwEh3sgumv251duiyGYIMDR8BbKAIf1vN2eiW72CpHHVdI6mMyLDmhK-nR6UIu9wlWbh8HHIOOw4BvgOoZBcWEYmhTrptG18JqABkDEM4xBmpZzym-SLcZRKIELy1bm3GpA_ma2pdbV8wa-BvCkYDn0-18BAq2J7Lxs9MCDbSDMWkkhfbb9RDNF5Q6W4TS07GQ6BE-50oIYyh5tlqP0g0GnrOa2vhvFafpPrK2gnCBFBFJkdSCdrsUCbblG06mV-49klOqLXFaFJwHSWkBh0ZLrrNOXKIPRS5LJM4eFvGHnZHV0hTx72FXH5KhtcUC_FR47NbR84iBRAz3ZVi0K-WMp9xHACbypG6NRf5WW4DtWeE9m9nLkCfupXlxENDYsKIBzQiUhbGTV_8prXJS935v922mTyZUYYYEvkw3SDJEEJQCGuMIFA3oA5F-Hxg7alQbGgyIh-nMoBbQ0qxACTubOFUGgDx90MfdsBDwkWToHpHGgnodkHAW9GPXtC8Fy9-5siZo8plqwrNK35qRHroGnUIefHvD6GvIOffcbeoTegGDNPIADOy-KXVl07s81_fRBNqtCpjqEmhKavTgityc2SNq-1D2F4AH_SqTIpqBVnSL_ejNOXv-bAnqym-U0ALLSvUabHUEERLpNm6S52QzBIr8-DTIKmvds8fRcbHz36emEgBBS62yNRt2f1kIxpV04K4KatdOE3vV8_Sjq2xyFTc1_mr_b-aMsM-e3XhbmpoSQa4_YDDEEg7hvU3cJk2maSocwfQ9AJZG3Sq9CWzE1Oo5VEYjI2B2LQG-mbG33nHq5_HD38MysJx2Kaz1vt3VM9cDTTcfL02QsD_5IQOutROQKPNoH6KQ1Be5e3hXC7OiX3O0Lf8On4gu_3LxhHTqrHACHWM0Yl95EbQtjpRXNR2n0jRgQTCfMzVSPLQaCVXFJ4qESZ62GCjIh-EICG8ns-76mgwdht_yiC_uqc7Ad8dvihXQlN5Di17etWItZNyQIIEyo4hKlfGYa1JqB77TIabiFYdOVh5SIg0Y6juGnQn2svR3jPxlW0gEXRaUoiEhB2vCvzbE7RswEvZOp4EcH6Jf9uMpg3uh_OYus-n1p2N8Ia1_gvYWO1Sk6HuhbI84Nblm7iFMJEEn3AakCBUVBM-UVb-WyvxOEpzoPuxl4UWJZTyO51tkX5VXzcp0PugfHAa5Jgp85OyB5aDpcUDkJDoCMNrI12YQ4mmEGenWHMSYy8rJ-VDJ_7woyToNOyA2W2u56UCqZ5DJ96BVQPq_aOZqJ8R0EKYku0_7jXqAyIuduH5a-04GJ50FsMay3By6m00?></g></svg>