<svg xmlns="http://www.w3.org/2000/svg" xmlns:xlink="http://www.w3.org/1999/xlink" version="1.1" data-diagram-type="DESCRIPTION" style="width:1236px;height:928px;background:#FFFFFF;" width="1236px" height="928px" viewBox="0 0 1236 928" zoomAndPan="magnify" preserveAspectRatio="none" contentStyleType="text/css"><?plantuml 1.2026.7beta11?><defs/><g font-family="sans-serif" lengthAdjust="spacing"><g class="title" data-source-line="23"><text x="425.61" y="35.421" fill="#000" font-size="22" textLength="383.163" font-weight="700" font-family="'Segoe UI'">Runtime Deployment Topology</text></g><!--cluster PC--><g class="cluster" data-qualified-name="PC" id="ent0001" data-source-line="28"><rect x="409.83" y="58.609" width="671" height="490.75" fill="#F7F9FC" style="stroke:#7A93BE;stroke-width:1;" rx="5" ry="5"/><text x="631.664" y="71.748" fill="#1F2933" font-size="12" textLength="227.332" font-weight="700" font-family="'Segoe UI'">Development Host  (Windows PC)</text></g><!--cluster host--><g class="cluster" data-qualified-name="PC.host" id="ent0002" data-source-line="30"><rect x="604.83" y="98.609" width="396" height="95.93" fill="#DCE9FB" style="stroke:#7A93BE;stroke-width:1;" rx="5" ry="5"/><text x="649.997" y="111.748" fill="#1F2933" font-size="12" textLength="305.666" font-weight="700" font-family="'Segoe UI'">MCP Host  (Claude Code / OpenCode / ZCode)</text></g><!--cluster build--><g class="cluster" data-qualified-name="build" id="ent0014" data-source-line="58"><rect x="770.83" y="603.359" width="410" height="125.93" fill="#FFF3D6" style="stroke:#7A93BE;stroke-width:1;" rx="5" ry="5"/><text x="934.199" y="616.498" fill="#1F2933" font-size="12" textLength="83.262" font-weight="700" font-family="'Segoe UI'">Build Server</text><text x="913.993" y="630.467" fill="#1F2933" font-size="12" textLength="123.674" font-weight="700" font-family="'Segoe UI'">(device: build-srv)</text></g><!--entity zdrive--><g class="entity" data-qualified-name="PC.zdrive" id="ent0006" data-source-line="36"><rect x="864.6" y="254.539" width="200.457" height="47.938" fill="#FFF" style="stroke:#7A93BE;stroke-width:1;" rx="5" ry="5"/><text x="874.6" y="275.678" fill="#1F2933" font-size="12" textLength="111.41" font-family="'Segoe UI'">Z:\ mounted share</text><text x="874.6" y="289.647" fill="#1F2933" font-size="12" textLength="180.457" font-family="'Segoe UI'">(file edit only — NOT via MCP)</text></g><!--entity server--><g class="entity" data-qualified-name="PC.server" id="ent0009" data-source-line="43"><rect x="485.93" y="363.479" width="261.805" height="61.906" fill="#DDF3E4" style="stroke:#7A93BE;stroke-width:1;" rx="5" ry="5"/><text x="495.93" y="384.618" fill="#1F2933" font-size="12" textLength="136.582" font-family="'Segoe UI'">embedded-mcp-toolkit</text><text x="495.93" y="398.587" fill="#1F2933" font-size="12" textLength="134.66" font-family="'Segoe UI'">(Node.js · MCP Server)</text><text x="495.93" y="412.556" fill="#1F2933" font-size="12" textLength="241.805" font-family="'Segoe UI'">Channels:  serial · ssh · adb · powershell</text></g><!--entity llm--><g class="entity" data-qualified-name="PC.host.llm" id="ent0003" data-source-line="31"><rect x="820.91" y="130.609" width="163.848" height="47.938" fill="#F7F9FC" style="stroke:#7A93BE;stroke-width:1;" rx="5" ry="5"/><text x="830.91" y="151.748" fill="#1F2933" font-size="12" textLength="72.422" font-family="'Segoe UI'">LLM (Agent)</text><text x="830.91" y="165.717" fill="#1F2933" font-size="12" textLength="143.848" font-family="'Segoe UI'">edits source · runs tools</text></g><!--entity client--><g class="entity" data-qualified-name="PC.host.client" id="ent0004" data-source-line="32"><rect x="620.72" y="130.609" width="114.225" height="47.938" fill="#F7F9FC" style="stroke:#7A93BE;stroke-width:1;" rx="5" ry="5"/><text x="630.72" y="151.748" fill="#1F2933" font-size="12" textLength="64.523" font-family="'Segoe UI'">MCP Client</text><text x="630.72" y="165.717" fill="#1F2933" font-size="12" textLength="94.225" font-family="'Segoe UI'">(1:1 per server)</text></g><!--entity proc--><g class="entity" data-qualified-name="PC.proc" id="ent0008" data-source-line="40"><rect x="425.61" y="254.539" width="404.451" height="47.938" fill="#FAFAFA" style="stroke:#7A93BE;stroke-width:1;" rx="5" ry="5"/><text x="435.61" y="275.678" fill="#1F2933" font-size="12" textLength="101.93" font-weight="700" font-family="'Segoe UI'">stdio transport</text><text x="548.983" y="275.678" fill="#1F2933" font-size="12" textLength="80.76" font-family="'Segoe UI'">JSON-RPC 2.0</text><text x="435.61" y="289.647" fill="#1F2933" font-size="12" textLength="384.451" font-family="'Segoe UI'">host spawns child + injects env (DEVICE, CONFIG_PATH, LOG_*)</text></g><!--entity osb--><g class="entity" data-qualified-name="PC.osb" id="ent0010" data-source-line="46"><rect x="437.48" y="499.389" width="268.702" height="33.969" fill="#FAFAFA" style="stroke:#7A93BE;stroke-width:1;" rx="5" ry="5"/><text x="447.48" y="520.528" fill="#1F2933" font-size="12" textLength="248.702" font-family="'Segoe UI'">本机 ↔ 外部设备   native libs / system calls</text></g><!--entity buildsrc--><g class="entity" data-qualified-name="build.buildsrc" id="ent0015" data-source-line="59"><rect x="985.89" y="657.359" width="151.889" height="47.938" fill="#F7F9FC" style="stroke:#7A93BE;stroke-width:1;" rx="5" ry="5"/><text x="995.89" y="678.498" fill="#1F2933" font-size="12" textLength="87.439" font-family="'Segoe UI'">① source code</text><text x="995.89" y="692.467" fill="#1F2933" font-size="12" textLength="131.889" font-family="'Segoe UI'">(edited via Z:\ mount)</text></g><!--entity buildmake--><g class="entity" data-qualified-name="build.buildmake" id="ent0016" data-source-line="60"><rect x="794.83" y="657.359" width="156.008" height="47.938" fill="#F7F9FC" style="stroke:#7A93BE;stroke-width:1;" rx="5" ry="5"/><text x="804.83" y="678.498" fill="#1F2933" font-size="12" textLength="79.787" font-family="'Segoe UI'">② cross-build</text><text x="804.83" y="692.467" fill="#1F2933" font-size="12" textLength="136.008" font-family="'Segoe UI'">(make / gcc ... via ssh)</text></g><!--entity board--><g class="entity" data-qualified-name="board" id="ent0017" data-source-line="63"><rect x="618" y="830.899" width="181.666" height="61.906" fill="#F7F9FC" style="stroke:#7A93BE;stroke-width:1;" rx="5" ry="5"/><text x="628" y="852.038" fill="#1F2933" font-size="12" textLength="139.945" font-family="'Segoe UI'">Embedded Linux Board</text><text x="628" y="866.007" fill="#1F2933" font-size="12" textLength="161.666" font-family="'Segoe UI'">(device: board-a / board-b)</text><text x="628" y="879.976" fill="#1F2933" font-size="12" textLength="111.41" font-family="'Segoe UI'">aarch64 · sshd :22</text></g><!--entity serial--><g class="entity" data-qualified-name="serial" id="ent0018" data-source-line="64"><rect x="12" y="650.369" width="181.666" height="61.906" fill="#F7F9FC" style="stroke:#7A93BE;stroke-width:1;" rx="5" ry="5"/><text x="22" y="671.508" fill="#1F2933" font-size="12" textLength="85.406" font-family="'Segoe UI'">Serial Console</text><text x="22" y="685.477" fill="#1F2933" font-size="12" textLength="161.666" font-family="'Segoe UI'">(device: board-a / board-b)</text><text x="22" y="699.446" fill="#1F2933" font-size="12" textLength="85.066" font-family="'Segoe UI'">UART / U-Boot</text></g><!--entity android--><g class="entity" data-qualified-name="android" id="ent0019" data-source-line="65"><rect x="228.91" y="650.369" width="203.844" height="61.906" fill="#F7F9FC" style="stroke:#7A93BE;stroke-width:1;" rx="5" ry="5"/><text x="238.91" y="671.508" fill="#1F2933" font-size="12" textLength="89.889" font-family="'Segoe UI'">Android device</text><text x="238.91" y="685.477" fill="#1F2933" font-size="12" textLength="183.844" font-family="'Segoe UI'">(device: android-1 / android-2)</text><text x="238.91" y="699.446" fill="#1F2933" font-size="12" textLength="64.904" font-family="'Segoe UI'">adb bridge</text></g><!--entity winhost--><g class="entity" data-qualified-name="winhost" id="ent0020" data-source-line="66"><rect x="467.62" y="650.369" width="124.426" height="61.906" fill="#F7F9FC" style="stroke:#7A93BE;stroke-width:1;" rx="5" ry="5"/><text x="477.62" y="671.508" fill="#1F2933" font-size="12" textLength="104.426" font-family="'Segoe UI'">Windows host OS</text><text x="477.62" y="685.477" fill="#1F2933" font-size="12" textLength="84.598" font-family="'Segoe UI'">(device: local)</text><text x="477.62" y="699.446" fill="#1F2933" font-size="12" textLength="65.982" font-family="'Segoe UI'">PowerShell</text></g><g class="entity" data-qualified-name="GMN28" id="ent0029" data-source-line="83"><path d="M834.26,815.289 L834.26,857.859 L799.97,861.859 L834.26,865.859 L834.26,908.414 A5,5 0 0 0 839.26,913.414 L1040.406,913.414 A5,5 0 0 0 1045.406,908.414 L1045.406,820.289 L1035.406,810.289 L839.26,810.289 A5,5 0 0 0 834.26,815.289" style="stroke:#E0B400;stroke-width:1;" fill="#FFFBE6"/><path d="M1035.406,810.289 L1035.406,817.789 A2.5,2.5 0 0 0 1037.906,820.289 L1045.406,820.289 L1035.406,810.289" style="stroke:#E0B400;stroke-width:1;" fill="#FFFBE6"/><text x="840.26" y="824.572" fill="#5C4A00" font-size="10" textLength="190.146" font-weight="700" font-family="'Segoe UI'">Channel vs Device are orthogonal</text><text x="840.26" y="836.212" fill="#5C4A00" font-size="10" textLength="166.841" font-family="'Segoe UI'">Each transport (ssh / serial / adb)</text><text x="840.26" y="847.853" fill="#5C4A00" font-size="10" textLength="159.438" font-family="'Segoe UI'">connects its own type of target:</text><text x="846.617" y="859.493" fill="#5C4A00" font-size="10" textLength="131.113" font-family="'Segoe UI'">ssh   → Linux board (sshd)</text><text x="846.617" y="871.134" fill="#5C4A00" font-size="10" textLength="150.996" font-family="'Segoe UI'">serial→ UART / U-Boot console</text><text x="846.617" y="882.775" fill="#5C4A00" font-size="10" textLength="114.824" font-family="'Segoe UI'">adb   → Android device</text><text x="840.26" y="894.415" fill="#5C4A00" font-size="10" textLength="175.527" font-family="'Segoe UI'">A single board may expose several</text><text x="840.26" y="906.056" fill="#5C4A00" font-size="10" textLength="126.885" font-family="'Segoe UI'">channels simultaneously.</text></g><!--link llm to client--><g class="link" data-entity-1="ent0003" data-entity-2="ent0004" id="lnk5" data-source-line="33" data-link-type="dependency"><path d="M820.53,154.579 C792.2,154.579 766.1,154.579 740.19,154.579" style="stroke:#5A5A5A;stroke-width:1;" fill="none" id="llm-to-client"/><polygon points="735.19,154.579,744.19,158.579,740.19,154.579,744.19,150.579,735.19,154.579" fill="#5A5A5A" style="stroke:#5A5A5A;stroke-width:1;stroke-linejoin:miter;stroke-miterlimit:10;"/><text x="753.43" y="148.79" fill="#333" font-size="11" textLength="49.167" font-family="'Segoe UI'">tools/call</text></g><!--link llm to zdrive--><g class="link" data-entity-1="ent0003" data-entity-2="ent0006" id="lnk7" data-source-line="37" data-link-type="dependency"><path d="M914.64,178.799 C925.67,200.499 939.784,228.253 950.804,249.923" style="stroke:#5A5A5A;stroke-width:1;" fill="none" id="llm-to-zdrive"/><polygon points="953.07,254.379,952.556,244.544,950.804,249.923,945.425,248.17,953.07,254.379" fill="#5A5A5A" style="stroke:#5A5A5A;stroke-width:1;stroke-linejoin:miter;stroke-miterlimit:10;"/><text x="937.83" y="221.75" fill="#333" font-size="11" textLength="129.502" font-family="'Segoe UI'">read / write source tree</text></g><!--link client to proc--><g class="link" data-entity-1="ent0004" data-entity-2="ent0008" id="lnk11" data-source-line="50" data-link-type="dependency"><path d="M668.31,178.799 C659.41,200.499 648.108,228.084 639.218,249.754" style="stroke:#5A5A5A;stroke-width:1;" fill="none" id="client-to-proc"/><polygon points="637.32,254.379,644.437,247.571,639.218,249.754,637.035,244.535,637.32,254.379" fill="#5A5A5A" style="stroke:#5A5A5A;stroke-width:1;stroke-linejoin:miter;stroke-miterlimit:10;"/><text x="654.83" y="221.75" fill="#333" font-size="11" textLength="65.033" font-family="'Segoe UI'">spawn child</text></g><!--link proc to server--><g class="link" data-entity-1="ent0008" data-entity-2="ent0009" id="lnk12" data-source-line="51" data-link-type="dependency"><path d="M625.58,302.839 C623.9,320.289 622.061,339.313 620.231,358.233" style="stroke:#5A5A5A;stroke-width:1;" fill="none" id="proc-to-server"/><polygon points="619.75,363.209,624.598,354.636,620.231,358.233,616.635,353.866,619.75,363.209" fill="#5A5A5A" style="stroke:#5A5A5A;stroke-width:1;stroke-linejoin:miter;stroke-miterlimit:10;"/></g><!--link server to osb--><g class="link" data-entity-1="ent0009" data-entity-2="ent0010" id="lnk13" data-source-line="52" data-link-type="dependency"><path d="M605.48,425.699 C596.73,449.019 586.724,475.667 579.684,494.457" style="stroke:#5A5A5A;stroke-width:1;" fill="none" id="server-to-osb"/><polygon points="577.93,499.139,584.833,492.115,579.684,494.457,577.342,489.308,577.93,499.139" fill="#5A5A5A" style="stroke:#5A5A5A;stroke-width:1;stroke-linejoin:miter;stroke-miterlimit:10;"/></g><!--link osb to buildmake--><g class="link" data-entity-1="ent0010" data-entity-2="ent0016" id="lnk21" data-source-line="70" data-link-type="dependency"><path d="M630.34,533.819 C667.54,545.669 715.85,563.739 754.83,587.359 C788.74,607.899 820.213,633.531 843.253,653.641" style="stroke:#5A5A5A;stroke-width:1;" fill="none" id="osb-to-buildmake"/><polygon points="847.02,656.929,842.87,647.998,843.253,653.641,837.609,654.025,847.02,656.929" fill="#5A5A5A" style="stroke:#5A5A5A;stroke-width:1;stroke-linejoin:miter;stroke-miterlimit:10;"/><text x="736.83" y="576.57" fill="#333" font-size="11" textLength="104.269" font-family="'Segoe UI'">ssh :22 (run make)</text></g><!--link osb to board--><g class="link" data-entity-1="ent0010" data-entity-2="ent0017" id="lnk22" data-source-line="71" data-link-type="dependency"><path d="M618.16,533.799 C632.97,541.239 648.05,551.549 657.83,565.359 C715.77,647.129 715.735,768.02 711.995,825.44" style="stroke:#5A5A5A;stroke-width:1;" fill="none" id="osb-to-board"/><polygon points="711.67,830.429,716.247,821.708,711.995,825.44,708.263,821.188,711.67,830.429" fill="#5A5A5A" style="stroke:#5A5A5A;stroke-width:1;stroke-linejoin:miter;stroke-miterlimit:10;"/><text x="711.83" y="685.54" fill="#333" font-size="11" textLength="65.458" font-family="'Segoe UI'">ssh channel</text></g><!--link osb to serial--><g class="link" data-entity-1="ent0010" data-entity-2="ent0018" id="lnk23" data-source-line="72" data-link-type="dependency"><path d="M437.26,527.669 C379.74,534.609 312.47,546.179 253.83,565.359 C233.8,571.909 229.29,575.559 211.83,587.359 C184.01,606.159 158.905,627.61 137.905,646.87" style="stroke:#5A5A5A;stroke-width:1;" fill="none" id="osb-to-serial"/><polygon points="134.22,650.249,143.556,647.114,137.905,646.87,138.149,641.218,134.22,650.249" fill="#5A5A5A" style="stroke:#5A5A5A;stroke-width:1;stroke-linejoin:miter;stroke-miterlimit:10;"/><text x="254.83" y="576.57" fill="#333" font-size="11" textLength="114.807" font-family="'Segoe UI'">serial channel (COM)</text></g><!--link osb to android--><g class="link" data-entity-1="ent0010" data-entity-2="ent0019" id="lnk24" data-source-line="73" data-link-type="dependency"><path d="M453.12,533.749 C430.81,540.829 408.86,550.939 390.83,565.359 C363.93,586.869 349.32,618.982 340.66,645.172" style="stroke:#5A5A5A;stroke-width:1;" fill="none" id="osb-to-android"/><polygon points="339.09,649.919,345.713,642.63,340.66,645.172,338.118,640.119,339.09,649.919" fill="#5A5A5A" style="stroke:#5A5A5A;stroke-width:1;stroke-linejoin:miter;stroke-miterlimit:10;"/><text x="391.83" y="576.57" fill="#333" font-size="11" textLength="102.389" font-family="'Segoe UI'">adb channel (USB)</text></g><!--link osb to winhost--><g class="link" data-entity-1="ent0010" data-entity-2="ent0020" id="lnk25" data-source-line="74" data-link-type="dependency"><path d="M538.78,533.709 C526.75,541.499 514.48,552.069 507.83,565.359 C494.47,592.079 501.744,621.422 512.034,645.482" style="stroke:#5A5A5A;stroke-width:1;" fill="none" id="osb-to-winhost"/><polygon points="514,650.079,514.139,640.231,512.034,645.482,506.783,643.377,514,650.079" fill="#5A5A5A" style="stroke:#5A5A5A;stroke-width:1;stroke-linejoin:miter;stroke-miterlimit:10;"/><text x="508.83" y="576.57" fill="#333" font-size="11" textLength="144.316" font-family="'Segoe UI'">powershell channel (local)</text></g><!--link zdrive to buildsrc--><g class="link" data-entity-1="ent0006" data-entity-2="ent0015" id="lnk26" data-source-line="77" data-link-type="dependency"><path d="M970.47,302.799 C987.61,373.639 1037.844,581.19 1055.004,652.12" style="stroke:#5A5A5A;stroke-width:1;stroke-dasharray:7,7;" fill="none" id="zdrive-to-buildsrc"/><polygon points="1056.18,656.979,1057.952,647.291,1055.004,652.12,1050.176,649.172,1056.18,656.979" fill="#5A5A5A" style="stroke:#5A5A5A;stroke-width:1;stroke-linejoin:miter;stroke-miterlimit:10;"/><text x="1010.83" y="466.6" fill="#333" font-size="11" textLength="85.014" font-family="'Segoe UI'">SMB / NFS sync</text></g><!--link build to board--><g class="link" data-entity-1="ent0014" data-entity-2="ent0017" id="lnk27" data-source-line="80" data-link-type="dependency"><path d="M1165.599,729.577 C1165.413,729.98 1165.223,730.381 1165.027,730.778 C1164.637,731.574 1164.229,732.36 1163.801,733.133 C1162.945,734.679 1162.012,736.175 1160.994,737.607 C1158.96,740.47 1156.59,743.073 1153.83,745.289 C1144.62,752.689 1059.5,751.429 1047.83,753.289 C943.41,769.999 916.53,775.039 816.83,810.289 C800.73,815.989 788.323,821.149 772.753,828.399" style="stroke:#5A5A5A;stroke-width:1;stroke-dasharray:7,7;" fill="none" id="build-to-board"/><polygon points="768.22,830.509,778.067,830.336,772.753,828.399,774.69,823.084,768.22,830.509" fill="#5A5A5A" style="stroke:#5A5A5A;stroke-width:1;stroke-linejoin:miter;stroke-miterlimit:10;"/><text x="1078.417" y="764.5" fill="#333" font-size="11" textLength="112.379" font-family="'Segoe UI'">deploy / flash binary</text><text x="1048.83" y="777.305" fill="#333" font-size="11" textLength="171.553" font-family="'Segoe UI'">(via ssh / serial / adb channels)</text></g><?plantuml-src hLVFRnD75BxxhtWD1-mKEt4IG75f9Fy4gYIESD9AA18Qxqxi8RipgvcrWq58I9NQGozjXL15SoWI1mu5UgjQLKNgduAQ54xz5_hUpDXPcq0Fi9RYzSnxtvlvtllUJ3vA-ppca4HCo9pP5p9XciNGPS5-Jwk13EigKXhEjEoJiJ1z5ge38NkmnoB3CpFUJKkkeRoOcGZv7Xj4QKl9T9DXqBaExoaEErVdCaPLhTM13tg-If_PIVBt1ilsESsW8svpA9Upo-91ocGlud0d1r1xOuCNMwkjEiqe7NBjHozMLvThpSdeTby4-v8R0sKSoooat5fQnOMuCHTxANSt4rsgz6s1MwrQyy9iuEPYRMLnSJh8-VfATJBcWYnYa5mgKjpLjO5C1RBQu4caHZ6NAMoh13rxerpkB7pw7W-wD_YGHogni5UKII7_XP1O00QswWLuUU--6qsq2f2Uzurtagkv-VatGa_5df-V0qPlo2vIa_7Sg6-DxUiH6uGSwWh_B40xuTA_NgVlWaNea-cPHhsvsghPJ4s1hQzlGBxQmpKKTYKFHMh0g84EEFprA-Y1D90g5HcB54Nnh3kjfHu9TD-L-NAb30cAmt0zvDf53-oaTKDtA6hHwwV5DJyE5GU_4B0eGgExCrkzNjdTXHYBAkKXALDp3BCdS8gM2af68vkZpVOs30K3N8uBUplKOiWdylR1aLk9iVra1IEn4Cawq0ABs6yxrPpJAiv2aHumQIWKZZ9f4gMnFewU_N3yuBVZm-UldZ_zzu-7nuS_7nt-SlJqsrSlVlpdoJUlxpty-yMZWdEUtiobxjeCsAM5xXeIyrcdlLcyXfbUAYtkIfilax03v3xeYoY4Zq78cuXZWCiXv1lDpw_Mc-UWtjviNRryOwkwVUKShBSltvXtUwTQnPrNwVD992IlD9Zf8u5tJc6OnrqUXZmina5If5pi2qhb9fPFwQQX8g0KTrn6TsMzpwJaaQa0PLcmY2oCwTCN2xlqbQW3hZ5U5DdLk6B00coqbfihMMQHkUF3t-7bL_VXwF63rry-UVNipwF7Nvz6tTjC0IHBAPUHw1hCf1cPbCT0rUHALfdkEwX0CdmTZal3SbTnz3lsStPeFEzsa_ER6ezYb0_GYfgtKgubKfeotUEORQfipe8-BiIo3W7sHuroePT0SopQa0y5DYRqphjN92Jc1Wi6i3_ZplhSuC-OfGYppqTs1httHAyqOd64d7c8XNaxKFY0BQuseEfrjOCrvG9Le4l3HQE7hbpjJwlKvSO5cvWCnCllVXeBCy2IH1GIFYQGr7xI7J98HWUp48yWqCgOefr7Y9ZjKu_i1G6KIYKBXIMSmI03AeuCIjFh1DQ57Dp2CutfCBid-braYEhUkgWLndJGlx3Y5H92PMd9XI2BB7R7AQckf54H_n_KdUgrRHpOATQKIiSAG_SiO5M6MedGfpO3oDn4iOm8u_SbMYfAjwj5sECMqKzb8SSda-rExKu6Cr8eDyJO8jrt9hh7AnJPaYwisgcDUDduSZOkBN2btTb6IDmZNXwO7bbxqiDCwKlR0bC5T4YXy20T9HpKdjzcZhG-LkGaZIHcR4_8FUJnE0CQAqoR4hLqFdbJ7t7AnlSwP-FUnmlBrziRqu2UFMjCn4uiTpgrQKlFaRKyQPid3exQ2ONNmHrSzW0q8nbWXOmIPaZXIEyvnoS_XL5xK5fQ_TbNeXMKrYQImGLqDcfO5PkjZeMU10tjjGkph18lNL23D1cai1UvNeePmJRZURH1dDaaXfseZ94Md2DqXSIbOI5v_L7xTjGkP6apk7zxoRGt1qgtqmy0dgV-E8AXeOiSjJziUe0dQr_r5BPIEc3HqbPIvWX_Cre1hIObDbjVhXzNx2M6N04Fekzz8t2R8yImu0miAXbCAPNGITtMXhRdGAQLYfDLCC8gpW77R0JyLg8C9XolYvhHBMcY7oDY_B-3IQu69XgLSbo6zaB-7m00?></g></svg>