<?xml version="1.0" encoding="UTF-8" standalone="no"?>
<!DOCTYPE svg PUBLIC "-//W3C//DTD SVG 1.1//EN"
 "http://www.w3.org/Graphics/SVG/1.1/DTD/svg11.dtd">
<!-- Generated by graphviz version 2.40.1 (20161225.0304)
 -->
<!-- Title: serial_sequence Pages: 1 -->
<svg width="790pt" height="746pt"
 viewBox="0.00 0.00 790.18 746.40" xmlns="http://www.w3.org/2000/svg" xmlns:xlink="http://www.w3.org/1999/xlink">
<g id="graph0" class="graph" transform="scale(1 1) rotate(0) translate(4 742.4)">
<title>serial_sequence</title>
<polygon fill="#ffffff" stroke="transparent" points="-4,4 -4,-742.4 786.1801,-742.4 786.1801,4 -4,4"/>
<text text-anchor="middle" x="391.0901" y="-720" font-family="Noto Sans CJK SC" font-size="16.00" fill="#000000">串口 serial_exec 命令执行时序</text>
<g id="clust6" class="cluster">
<title>cluster_legend</title>
<path fill="#edf2f9" stroke="#8fa8c8" stroke-dasharray="5,2" d="M257.547,-439C257.547,-439 483.547,-439 483.547,-439 489.547,-439 495.547,-445 495.547,-451 495.547,-451 495.547,-500.2 495.547,-500.2 495.547,-506.2 489.547,-512.2 483.547,-512.2 483.547,-512.2 257.547,-512.2 257.547,-512.2 251.547,-512.2 245.547,-506.2 245.547,-500.2 245.547,-500.2 245.547,-451 245.547,-451 245.547,-445 251.547,-439 257.547,-439"/>
<text text-anchor="middle" x="370.547" y="-498.3" font-family="Noto Sans CJK SC" font-size="11.00" fill="#1a1a1a">图例</text>
</g>
<!-- n1 -->
<g id="node1" class="node">
<title>n1</title>
<path fill="#dce9fb" stroke="#2c5f8a" d="M176.5522,-711.2C176.5522,-711.2 52.5417,-711.2 52.5417,-711.2 46.5417,-711.2 40.5417,-705.2 40.5417,-699.2 40.5417,-699.2 40.5417,-687.2 40.5417,-687.2 40.5417,-681.2 46.5417,-675.2 52.5417,-675.2 52.5417,-675.2 176.5522,-675.2 176.5522,-675.2 182.5522,-675.2 188.5522,-681.2 188.5522,-687.2 188.5522,-687.2 188.5522,-699.2 188.5522,-699.2 188.5522,-705.2 182.5522,-711.2 176.5522,-711.2"/>
<text text-anchor="middle" x="114.547" y="-689.9" font-family="Noto Sans CJK SC" font-size="11.00" fill="#000000">① serial_exec(session, cmd)</text>
</g>
<!-- n2 -->
<g id="node2" class="node">
<title>n2</title>
<path fill="#ddf3e4" stroke="#2f6e2f" d="M211.5936,-642.2C211.5936,-642.2 17.5003,-642.2 17.5003,-642.2 11.5003,-642.2 5.5003,-636.2 5.5003,-630.2 5.5003,-630.2 5.5003,-618.2 5.5003,-618.2 5.5003,-612.2 11.5003,-606.2 17.5003,-606.2 17.5003,-606.2 211.5936,-606.2 211.5936,-606.2 217.5936,-606.2 223.5936,-612.2 223.5936,-618.2 223.5936,-618.2 223.5936,-630.2 223.5936,-630.2 223.5936,-636.2 217.5936,-642.2 211.5936,-642.2"/>
<text text-anchor="middle" x="114.547" y="-620.9" font-family="Noto Sans CJK SC" font-size="11.00" fill="#000000">② classifyResident() 选超时与超时动作</text>
</g>
<!-- n1&#45;&gt;n2 -->
<!-- n1&#45;&gt;n2 -->
<g id="edge14" class="edge">
<title>n1&#45;&gt;n2</title>
<path fill="none" stroke="#5a5a5a" d="M139.2145,-675.0711C139.2145,-675.0711 139.2145,-649.4474 139.2145,-649.4474"/>
<polygon fill="#5a5a5a" stroke="#5a5a5a" points="141.6646,-649.4474 139.2145,-642.4474 136.7646,-649.4475 141.6646,-649.4474"/>
</g>
<!-- n3 -->
<g id="node3" class="node">
<title>n3</title>
<path fill="#ddf3e4" stroke="#2f6e2f" d="M183.4043,-573.2C183.4043,-573.2 45.6896,-573.2 45.6896,-573.2 39.6896,-573.2 33.6896,-567.2 33.6896,-561.2 33.6896,-561.2 33.6896,-549.2 33.6896,-549.2 33.6896,-543.2 39.6896,-537.2 45.6896,-537.2 45.6896,-537.2 183.4043,-537.2 183.4043,-537.2 189.4043,-537.2 195.4043,-543.2 195.4043,-549.2 195.4043,-549.2 195.4043,-561.2 195.4043,-561.2 195.4043,-567.2 189.4043,-573.2 183.4043,-573.2"/>
<text text-anchor="middle" x="114.547" y="-551.9" font-family="Noto Sans CJK SC" font-size="11.00" fill="#000000">③ drain() 前置冲刷残留输出</text>
</g>
<!-- n2&#45;&gt;n3 -->
<!-- n2&#45;&gt;n3 -->
<g id="edge15" class="edge">
<title>n2&#45;&gt;n3</title>
<path fill="none" stroke="#5a5a5a" d="M141.4398,-606.0711C141.4398,-606.0711 141.4398,-580.4474 141.4398,-580.4474"/>
<polygon fill="#5a5a5a" stroke="#5a5a5a" points="143.8899,-580.4474 141.4398,-573.4474 138.9899,-580.4475 143.8899,-580.4474"/>
</g>
<!-- n4 -->
<g id="node4" class="node">
<title>n4</title>
<path fill="#ddf3e4" stroke="#2f6e2f" d="M198.7717,-483C198.7717,-483 30.3222,-483 30.3222,-483 24.3222,-483 18.3222,-477 18.3222,-471 18.3222,-471 18.3222,-459 18.3222,-459 18.3222,-453 24.3222,-447 30.3222,-447 30.3222,-447 198.7717,-447 198.7717,-447 204.7717,-447 210.7717,-453 210.7717,-459 210.7717,-459 210.7717,-471 210.7717,-471 210.7717,-477 204.7717,-483 198.7717,-483"/>
<text text-anchor="middle" x="114.547" y="-461.7" font-family="Noto Sans CJK SC" font-size="11.00" fill="#000000">④ write(&quot;(cmd); echo MARKER:$?&quot;)</text>
</g>
<!-- n3&#45;&gt;n4 -->
<!-- n3&#45;&gt;n4 -->
<g id="edge16" class="edge">
<title>n3&#45;&gt;n4</title>
<path fill="none" stroke="#5a5a5a" d="M87.6541,-536.9467C87.6541,-536.9467 87.6541,-490.2262 87.6541,-490.2262"/>
<polygon fill="#5a5a5a" stroke="#5a5a5a" points="90.1042,-490.2261 87.6541,-483.2262 85.2042,-490.2262 90.1042,-490.2261"/>
</g>
<!-- n5 -->
<g id="node5" class="node">
<title>n5</title>
<path fill="#fff3d6" stroke="#b08a1e" d="M190.8975,-414C190.8975,-414 38.1964,-414 38.1964,-414 32.1964,-414 26.1964,-408 26.1964,-402 26.1964,-402 26.1964,-390 26.1964,-390 26.1964,-384 32.1964,-378 38.1964,-378 38.1964,-378 190.8975,-378 190.8975,-378 196.8975,-378 202.8975,-384 202.8975,-390 202.8975,-390 202.8975,-402 202.8975,-402 202.8975,-408 196.8975,-414 190.8975,-414"/>
<text text-anchor="middle" x="114.547" y="-392.7" font-family="Noto Sans CJK SC" font-size="11.00" fill="#000000">⑤ 经 SerialShell 串口写入 + 换行</text>
</g>
<!-- n4&#45;&gt;n5 -->
<!-- n4&#45;&gt;n5 -->
<g id="edge17" class="edge">
<title>n4&#45;&gt;n5</title>
<path fill="none" stroke="#5a5a5a" d="M85.0719,-446.8711C85.0719,-446.8711 85.0719,-421.2474 85.0719,-421.2474"/>
<polygon fill="#5a5a5a" stroke="#5a5a5a" points="87.522,-421.2474 85.0719,-414.2474 82.622,-421.2475 87.522,-421.2474"/>
</g>
<!-- n6 -->
<g id="node6" class="node">
<title>n6</title>
<path fill="#fff3d6" stroke="#b08a1e" d="M208.036,-334C208.036,-334 21.0579,-334 21.0579,-334 15.0579,-334 9.0579,-328 9.0579,-322 9.0579,-322 9.0579,-310 9.0579,-310 9.0579,-304 15.0579,-298 21.0579,-298 21.0579,-298 208.036,-298 208.036,-298 214.036,-298 220.036,-304 220.036,-310 220.036,-310 220.036,-322 220.036,-322 220.036,-328 214.036,-334 208.036,-334"/>
<text text-anchor="middle" x="114.547" y="-312.7" font-family="Noto Sans CJK SC" font-size="11.00" fill="#000000">⑥ PTY 回显首行（设备→传输层）</text>
</g>
<!-- n5&#45;&gt;n6 -->
<!-- n5&#45;&gt;n6 -->
<g id="edge18" class="edge">
<title>n5&#45;&gt;n6</title>
<path fill="none" stroke="#5a5a5a" d="M114.547,-377.8468C114.547,-377.8468 114.547,-341.0814 114.547,-341.0814"/>
<polygon fill="#5a5a5a" stroke="#5a5a5a" points="116.997,-341.0814 114.547,-334.0814 112.097,-341.0814 116.997,-341.0814"/>
</g>
<!-- n5&#45;&gt;n6 -->
<g id="edge27" class="edge">
<title>n5&#45;&gt;n6</title>
<path fill="none" stroke="#4a6a8a" stroke-dasharray="5,2" d="M70.3343,-377.8468C70.3343,-377.8468 70.3343,-341.0814 70.3343,-341.0814"/>
<polygon fill="#4a6a8a" stroke="#4a6a8a" points="72.7844,-341.0814 70.3343,-334.0814 67.8844,-341.0814 72.7844,-341.0814"/>
<text text-anchor="middle" x="223.4655" y="-353" font-family="Noto Sans CJK SC" font-size="10.00" fill="#000000">设备回显</text>
</g>
<!-- n7 -->
<g id="node7" class="node">
<title>n7</title>
<path fill="#ddf3e4" stroke="#2f6e2f" d="M173.0452,-254C173.0452,-254 56.0487,-254 56.0487,-254 50.0487,-254 44.0487,-248 44.0487,-242 44.0487,-242 44.0487,-230 44.0487,-230 44.0487,-224 50.0487,-218 56.0487,-218 56.0487,-218 173.0452,-218 173.0452,-218 179.0452,-218 185.0452,-224 185.0452,-230 185.0452,-230 185.0452,-242 185.0452,-242 185.0452,-248 179.0452,-254 173.0452,-254"/>
<text text-anchor="middle" x="114.547" y="-232.7" font-family="Noto Sans CJK SC" font-size="11.00" fill="#000000">⑦ drain() 剥离回显首行</text>
</g>
<!-- n6&#45;&gt;n7 -->
<!-- n6&#45;&gt;n7 -->
<g id="edge19" class="edge">
<title>n6&#45;&gt;n7</title>
<path fill="none" stroke="#5a5a5a" d="M91.0473,-297.8468C91.0473,-297.8468 91.0473,-261.0814 91.0473,-261.0814"/>
<polygon fill="#5a5a5a" stroke="#5a5a5a" points="93.4973,-261.0814 91.0473,-254.0814 88.5973,-261.0814 93.4973,-261.0814"/>
</g>
<!-- n8 -->
<g id="node8" class="node">
<title>n8</title>
<path fill="#ddf3e4" stroke="#2f6e2f" d="M217.1409,-185C217.1409,-185 11.953,-185 11.953,-185 5.953,-185 -.047,-179 -.047,-173 -.047,-173 -.047,-161 -.047,-161 -.047,-155 5.953,-149 11.953,-149 11.953,-149 217.1409,-149 217.1409,-149 223.1409,-149 229.1409,-155 229.1409,-161 229.1409,-161 229.1409,-173 229.1409,-173 229.1409,-179 223.1409,-185 217.1409,-185"/>
<text text-anchor="middle" x="114.547" y="-163.7" font-family="Noto Sans CJK SC" font-size="11.00" fill="#000000">⑧ loop 轮询 sleep(200ms)+drain() 累积</text>
</g>
<!-- n7&#45;&gt;n8 -->
<!-- n7&#45;&gt;n8 -->
<g id="edge20" class="edge">
<title>n7&#45;&gt;n8</title>
<path fill="none" stroke="#5a5a5a" d="M91.0473,-217.8711C91.0473,-217.8711 91.0473,-192.2474 91.0473,-192.2474"/>
<polygon fill="#5a5a5a" stroke="#5a5a5a" points="93.4973,-192.2474 91.0473,-185.2474 88.5973,-192.2475 93.4973,-192.2474"/>
</g>
<!-- n9 -->
<g id="node9" class="node">
<title>n9</title>
<path fill="#fff3d6" stroke="#b08a1e" d="M172.6531,-105C172.6531,-105 56.4408,-105 56.4408,-105 50.4408,-105 44.4408,-99 44.4408,-93 44.4408,-93 44.4408,-81 44.4408,-81 44.4408,-75 50.4408,-69 56.4408,-69 56.4408,-69 172.6531,-69 172.6531,-69 178.6531,-69 184.6531,-75 184.6531,-81 184.6531,-81 184.6531,-93 184.6531,-93 184.6531,-99 178.6531,-105 172.6531,-105"/>
<text text-anchor="middle" x="114.547" y="-83.7" font-family="Noto Sans CJK SC" font-size="11.00" fill="#000000">⑨ 远端设备执行命令</text>
</g>
<!-- n8&#45;&gt;n9 -->
<!-- n8&#45;&gt;n9 -->
<g id="edge21" class="edge">
<title>n8&#45;&gt;n9</title>
<path fill="none" stroke="#5a5a5a" d="M114.547,-148.8468C114.547,-148.8468 114.547,-112.0814 114.547,-112.0814"/>
<polygon fill="#5a5a5a" stroke="#5a5a5a" points="116.997,-112.0814 114.547,-105.0814 112.097,-112.0814 116.997,-112.0814"/>
</g>
<!-- n8&#45;&gt;n9 -->
<g id="edge28" class="edge">
<title>n8&#45;&gt;n9</title>
<path fill="none" stroke="#4a6a8a" stroke-dasharray="5,2" d="M79.5204,-148.8468C79.5204,-148.8468 79.5204,-112.0814 79.5204,-112.0814"/>
<polygon fill="#4a6a8a" stroke="#4a6a8a" points="81.9705,-112.0814 79.5204,-105.0814 77.0705,-112.0814 81.9705,-112.0814"/>
<text text-anchor="middle" x="225.546" y="-124" font-family="Noto Sans CJK SC" font-size="10.00" fill="#000000">命令下发</text>
</g>
<!-- n10 -->
<g id="node10" class="node">
<title>n10</title>
<path fill="#fff3d6" stroke="#b08a1e" d="M177.049,-36C177.049,-36 52.0449,-36 52.0449,-36 46.0449,-36 40.0449,-30 40.0449,-24 40.0449,-24 40.0449,-12 40.0449,-12 40.0449,-6 46.0449,0 52.0449,0 52.0449,0 177.049,0 177.049,0 183.049,0 189.049,-6 189.049,-12 189.049,-12 189.049,-24 189.049,-24 189.049,-30 183.049,-36 177.049,-36"/>
<text text-anchor="middle" x="114.547" y="-14.7" font-family="Noto Sans CJK SC" font-size="11.00" fill="#000000">⑩ 命令输出 + 提示符回传</text>
</g>
<!-- n9&#45;&gt;n10 -->
<!-- n9&#45;&gt;n10 -->
<g id="edge22" class="edge">
<title>n9&#45;&gt;n10</title>
<path fill="none" stroke="#5a5a5a" d="M114.547,-68.8711C114.547,-68.8711 114.547,-43.2474 114.547,-43.2474"/>
<polygon fill="#5a5a5a" stroke="#5a5a5a" points="116.997,-43.2474 114.547,-36.2474 112.097,-43.2475 116.997,-43.2474"/>
</g>
<!-- n9&#45;&gt;n10 -->
<g id="edge29" class="edge">
<title>n9&#45;&gt;n10</title>
<path fill="none" stroke="#4a6a8a" stroke-dasharray="5,2" d="M149.5735,-68.8711C149.5735,-68.8711 149.5735,-43.2474 149.5735,-43.2474"/>
<polygon fill="#4a6a8a" stroke="#4a6a8a" points="152.0236,-43.2474 149.5735,-36.2474 147.1236,-43.2475 152.0236,-43.2474"/>
</g>
<!-- n11 -->
<g id="node11" class="node">
<title>n11</title>
<path fill="#ddf3e4" stroke="#2f6e2f" d="M439.7909,-36C439.7909,-36 287.303,-36 287.303,-36 281.303,-36 275.303,-30 275.303,-24 275.303,-24 275.303,-12 275.303,-12 275.303,-6 281.303,0 287.303,0 287.303,0 439.7909,0 439.7909,0 445.7909,0 451.7909,-6 451.7909,-12 451.7909,-12 451.7909,-24 451.7909,-24 451.7909,-30 445.7909,-36 439.7909,-36"/>
<text text-anchor="middle" x="363.547" y="-14.7" font-family="Noto Sans CJK SC" font-size="11.00" fill="#000000">⑪ drain() 累积输出返回编排层</text>
</g>
<!-- n10&#45;&gt;n11 -->
<g id="edge23" class="edge">
<title>n10:e&#45;&gt;n11:w</title>
<path fill="none" stroke="#5a5a5a" d="M189.547,-18C189.547,-18 268.547,-18 268.547,-18"/>
<polygon fill="#5a5a5a" stroke="#5a5a5a" points="268.547,-20.4501 275.547,-18 268.5469,-15.5501 268.547,-20.4501"/>
</g>
<!-- n12 -->
<g id="node12" class="node">
<title>n12</title>
<path fill="#ddf3e4" stroke="#2f6e2f" d="M593.4618,-334C593.4618,-334 381.6321,-334 381.6321,-334 375.6321,-334 369.6321,-328 369.6321,-322 369.6321,-322 369.6321,-310 369.6321,-310 369.6321,-304 375.6321,-298 381.6321,-298 381.6321,-298 593.4618,-298 593.4618,-298 599.4618,-298 605.4618,-304 605.4618,-310 605.4618,-310 605.4618,-322 605.4618,-322 605.4618,-328 599.4618,-334 593.4618,-334"/>
<text text-anchor="middle" x="487.547" y="-312.7" font-family="Noto Sans CJK SC" font-size="11.00" fill="#000000">⑫ 结束判定：marker 命中 / 提示符末尾锚定</text>
</g>
<!-- n11&#45;&gt;n12 -->
<!-- n11&#45;&gt;n12 -->
<g id="edge24" class="edge">
<title>n11&#45;&gt;n12</title>
<path fill="none" stroke="#5a5a5a" d="M423.2279,-36.1926C423.2279,-36.1926 423.2279,-290.6668 423.2279,-290.6668"/>
<polygon fill="#5a5a5a" stroke="#5a5a5a" points="420.778,-290.6668 423.2279,-297.6668 425.678,-290.6668 420.778,-290.6668"/>
</g>
<!-- n13 -->
<g id="node13" class="node">
<title>n13</title>
<path fill="#ffe0e0" stroke="#b03030" d="M770.3134,-254C770.3134,-254 594.7805,-254 594.7805,-254 588.7805,-254 582.7805,-248 582.7805,-242 582.7805,-242 582.7805,-230 582.7805,-230 582.7805,-224 588.7805,-218 594.7805,-218 594.7805,-218 770.3134,-218 770.3134,-218 776.3134,-218 782.3134,-224 782.3134,-230 782.3134,-230 782.3134,-242 782.3134,-242 782.3134,-248 776.3134,-254 770.3134,-254"/>
<text text-anchor="middle" x="682.547" y="-232.7" font-family="Noto Sans CJK SC" font-size="11.00" fill="#000000">⑬ 超时(常驻) sendCtrl(&quot;c&quot;) 发 Ctrl+C</text>
</g>
<!-- n12&#45;&gt;n13 -->
<!-- n12&#45;&gt;n13 -->
<g id="edge30" class="edge">
<title>n12:e&#45;&gt;n13:w</title>
<path fill="none" stroke="#b03030" stroke-dasharray="1,5" d="M597.8074,-316C597.8074,-316 597.8074,-243 597.8074,-243"/>
<polygon fill="#b03030" stroke="#b03030" points="600.2575,-243 597.8074,-236 595.3575,-243 600.2575,-243"/>
<text text-anchor="middle" x="620.4685" y="-273" font-family="Noto Sans CJK SC" font-size="10.00" fill="#000000">常驻超时</text>
</g>
<!-- n15 -->
<g id="node15" class="node">
<title>n15</title>
<path fill="#dce9fb" stroke="#2c5f8a" d="M581.2971,-105C581.2971,-105 461.7968,-105 461.7968,-105 455.7968,-105 449.7968,-99 449.7968,-93 449.7968,-93 449.7968,-81 449.7968,-81 449.7968,-75 455.7968,-69 461.7968,-69 461.7968,-69 581.2971,-69 581.2971,-69 587.2971,-69 593.2971,-75 593.2971,-81 593.2971,-81 593.2971,-93 593.2971,-93 593.2971,-99 587.2971,-105 581.2971,-105"/>
<text text-anchor="middle" x="521.547" y="-83.7" font-family="Noto Sans CJK SC" font-size="11.00" fill="#000000">⑮ 返回 output + exitCode</text>
</g>
<!-- n12&#45;&gt;n15 -->
<g id="edge25" class="edge">
<title>n12&#45;&gt;n15</title>
<path fill="none" stroke="#5a5a5a" d="M494.2526,-297.6471C494.2526,-297.6471 494.2526,-112.1225 494.2526,-112.1225"/>
<polygon fill="#5a5a5a" stroke="#5a5a5a" points="496.7027,-112.1224 494.2526,-105.1225 491.8027,-112.1225 496.7027,-112.1224"/>
</g>
<!-- n12&#45;&gt;n15 -->
<!-- n14 -->
<g id="node14" class="node">
<title>n14</title>
<path fill="#fff3d6" stroke="#b08a1e" d="M767.1772,-185C767.1772,-185 597.9167,-185 597.9167,-185 591.9167,-185 585.9167,-179 585.9167,-173 585.9167,-173 585.9167,-161 585.9167,-161 585.9167,-155 591.9167,-149 597.9167,-149 597.9167,-149 767.1772,-149 767.1772,-149 773.1772,-149 779.1772,-155 779.1772,-161 779.1772,-161 779.1772,-173 779.1772,-173 779.1772,-179 773.1772,-185 767.1772,-185"/>
<text text-anchor="middle" x="682.547" y="-163.7" font-family="Noto Sans CJK SC" font-size="11.00" fill="#000000">⑭ ^C + 提示符（设备→传输层）</text>
</g>
<!-- n13&#45;&gt;n14 -->
<!-- n13&#45;&gt;n14 -->
<g id="edge31" class="edge">
<title>n13&#45;&gt;n14</title>
<path fill="none" stroke="#b03030" stroke-dasharray="1,5" d="M714.8186,-217.8711C714.8186,-217.8711 714.8186,-192.2474 714.8186,-192.2474"/>
<polygon fill="#b03030" stroke="#b03030" points="717.2687,-192.2474 714.8186,-185.2474 712.3687,-192.2475 717.2687,-192.2474"/>
</g>
<!-- n14&#45;&gt;n15 -->
<!-- n14&#45;&gt;n15 -->
<g id="edge32" class="edge">
<title>n14:w&#45;&gt;n15:e</title>
<path fill="none" stroke="#b03030" stroke-dasharray="1,5" d="M590.6919,-167C590.6919,-167 590.6919,-94 590.6919,-94"/>
<polygon fill="#b03030" stroke="#b03030" points="593.142,-94 590.6919,-87 588.242,-94 593.142,-94"/>
<text text-anchor="middle" x="614.93" y="-124" font-family="Noto Sans CJK SC" font-size="10.00" fill="#000000">采样后返回</text>
</g>
<!-- lab1 -->
<g id="node16" class="node">
<title>lab1</title>
<text text-anchor="middle" x="370.547" y="-552.2" font-family="Noto Sans CJK SC" font-size="10.00" fill="#1a1a1a">蓝=调用方/返回　绿=编排层　黄=传输层/设备</text>
</g>
<!-- lab2 -->
<g id="node17" class="node">
<title>lab2</title>
<text text-anchor="middle" x="370.547" y="-462" font-family="Noto Sans CJK SC" font-size="10.00" fill="#1a1a1a">实线=主流程　虚线=设备回传　点线=超时分支</text>
</g>
<!-- lab1&#45;&gt;lab2 -->
</g>
</svg>
